<svg width="451" height="43" viewBox="0 0 451 43" fill="none" xmlns="http://www.w3.org/2000/svg">
<path d="M25.8051 25.8051L22.1924 22.1924C14.0028 14.0028 19.803 0 31.3848 0H413.508C425.789 0 431.222 15.459 421.641 23.1419L413.127 29.9686C403.012 38.0797 390.434 42.5 377.469 42.5H66.1102C50.9928 42.5 36.4947 36.4947 25.8051 25.8051Z" fill="#54FF7F"/>
<path d="M175.237 21.272C175.867 21.3893 176.384 21.704 176.789 22.216C177.195 22.728 177.397 23.3147 177.397 23.976C177.397 24.5733 177.248 25.1013 176.949 25.56C176.661 26.008 176.24 26.36 175.685 26.616C175.131 26.872 174.475 27 173.717 27H168.901V15.832H173.509C174.267 15.832 174.917 15.9547 175.461 16.2C176.016 16.4453 176.432 16.7867 176.709 17.224C176.997 17.6613 177.141 18.1573 177.141 18.712C177.141 19.3627 176.965 19.9067 176.613 20.344C176.272 20.7813 175.813 21.0907 175.237 21.272ZM171.141 20.44H173.189C173.723 20.44 174.133 20.3227 174.421 20.088C174.709 19.8427 174.853 19.496 174.853 19.048C174.853 18.6 174.709 18.2533 174.421 18.008C174.133 17.7627 173.723 17.64 173.189 17.64H171.141V20.44ZM173.397 25.176C173.941 25.176 174.363 25.048 174.661 24.792C174.971 24.536 175.125 24.1733 175.125 23.704C175.125 23.224 174.965 22.8507 174.645 22.584C174.325 22.3067 173.893 22.168 173.349 22.168H171.141V25.176H173.397ZM187.551 18.136V27H185.295V25.88C185.007 26.264 184.628 26.568 184.159 26.792C183.7 27.0053 183.199 27.112 182.655 27.112C181.961 27.112 181.348 26.968 180.815 26.68C180.281 26.3813 179.86 25.9493 179.551 25.384C179.252 24.808 179.103 24.1253 179.103 23.336V18.136H181.343V23.016C181.343 23.72 181.519 24.264 181.871 24.648C182.223 25.0213 182.703 25.208 183.311 25.208C183.929 25.208 184.415 25.0213 184.767 24.648C185.119 24.264 185.295 23.72 185.295 23.016V18.136H187.551ZM198.241 18.136L192.753 31.192H190.369L192.289 26.776L188.737 18.136H191.249L193.537 24.328L195.857 18.136H198.241ZM207.165 15.832C208.338 15.832 209.367 16.0613 210.253 16.52C211.149 16.9787 211.837 17.6347 212.317 18.488C212.807 19.3307 213.053 20.312 213.053 21.432C213.053 22.552 212.807 23.5333 212.317 24.376C211.837 25.208 211.149 25.8533 210.253 26.312C209.367 26.7707 208.338 27 207.165 27H203.261V15.832H207.165ZM207.085 25.096C208.258 25.096 209.165 24.776 209.805 24.136C210.445 23.496 210.765 22.5947 210.765 21.432C210.765 20.2693 210.445 19.3627 209.805 18.712C209.165 18.0507 208.258 17.72 207.085 17.72H205.501V25.096H207.085ZM222.97 22.376C222.97 22.696 222.948 22.984 222.906 23.24H216.426C216.479 23.88 216.703 24.3813 217.098 24.744C217.492 25.1067 217.978 25.288 218.554 25.288C219.386 25.288 219.978 24.9307 220.33 24.216H222.746C222.49 25.0693 221.999 25.7733 221.274 26.328C220.548 26.872 219.658 27.144 218.602 27.144C217.748 27.144 216.98 26.9573 216.298 26.584C215.626 26.2 215.098 25.6613 214.714 24.968C214.34 24.2747 214.154 23.4747 214.154 22.568C214.154 21.6507 214.34 20.8453 214.714 20.152C215.087 19.4587 215.61 18.9253 216.282 18.552C216.954 18.1787 217.727 17.992 218.602 17.992C219.444 17.992 220.196 18.1733 220.858 18.536C221.53 18.8987 222.047 19.416 222.41 20.088C222.783 20.7493 222.97 21.512 222.97 22.376ZM220.65 21.736C220.639 21.16 220.431 20.7013 220.026 20.36C219.62 20.008 219.124 19.832 218.538 19.832C217.983 19.832 217.514 20.0027 217.13 20.344C216.756 20.6747 216.527 21.1387 216.442 21.736H220.65ZM226.845 19.432C227.133 19.0053 227.527 18.6587 228.029 18.392C228.541 18.1253 229.122 17.992 229.773 17.992C230.53 17.992 231.213 18.1787 231.821 18.552C232.439 18.9253 232.925 19.4587 233.277 20.152C233.639 20.8347 233.821 21.6293 233.821 22.536C233.821 23.4427 233.639 24.248 233.277 24.952C232.925 25.6453 232.439 26.184 231.821 26.568C231.213 26.952 230.53 27.144 229.773 27.144C229.111 27.144 228.53 27.016 228.029 26.76C227.538 26.4933 227.143 26.152 226.845 25.736V27H224.605V15.16H226.845V19.432ZM231.533 22.536C231.533 22.0027 231.421 21.544 231.197 21.16C230.983 20.7653 230.695 20.4667 230.333 20.264C229.981 20.0613 229.597 19.96 229.181 19.96C228.775 19.96 228.391 20.0667 228.029 20.28C227.677 20.4827 227.389 20.7813 227.165 21.176C226.951 21.5707 226.845 22.0347 226.845 22.568C226.845 23.1013 226.951 23.5653 227.165 23.96C227.389 24.3547 227.677 24.6587 228.029 24.872C228.391 25.0747 228.775 25.176 229.181 25.176C229.597 25.176 229.981 25.0693 230.333 24.856C230.695 24.6427 230.983 24.3387 231.197 23.944C231.421 23.5493 231.533 23.08 231.533 22.536ZM243.688 22.376C243.688 22.696 243.667 22.984 243.624 23.24H237.144C237.198 23.88 237.422 24.3813 237.816 24.744C238.211 25.1067 238.696 25.288 239.272 25.288C240.104 25.288 240.696 24.9307 241.048 24.216H243.464C243.208 25.0693 242.718 25.7733 241.992 26.328C241.267 26.872 240.376 27.144 239.32 27.144C238.467 27.144 237.699 26.9573 237.016 26.584C236.344 26.2 235.816 25.6613 235.432 24.968C235.059 24.2747 234.872 23.4747 234.872 22.568C234.872 21.6507 235.059 20.8453 235.432 20.152C235.806 19.4587 236.328 18.9253 237 18.552C237.672 18.1787 238.446 17.992 239.32 17.992C240.163 17.992 240.915 18.1733 241.576 18.536C242.248 18.8987 242.766 19.416 243.128 20.088C243.502 20.7493 243.688 21.512 243.688 22.376ZM241.368 21.736C241.358 21.16 241.15 20.7013 240.744 20.36C240.339 20.008 239.843 19.832 239.256 19.832C238.702 19.832 238.232 20.0027 237.848 20.344C237.475 20.6747 237.246 21.1387 237.16 21.736H241.368ZM247.931 19.976V24.264C247.931 24.5627 248.001 24.7813 248.139 24.92C248.289 25.048 248.534 25.112 248.875 25.112H249.915V27H248.507C246.619 27 245.675 26.0827 245.675 24.248V19.976H244.619V18.136H245.675V15.944H247.931V18.136H249.915V19.976H247.931ZM253.574 25.16H257.526V27H251.03V25.192L254.902 19.976H251.046V18.136H257.478V19.944L253.574 25.16Z" fill="black"/>
<path d="M297.001 21L283.001 21" stroke="black" stroke-width="1.5" stroke-linecap="round" stroke-linejoin="round"/>
<path d="M292.001 26L297.001 21" stroke="black" stroke-width="1.5" stroke-linecap="round" stroke-linejoin="round"/>
<path d="M292.001 16L297.001 21" stroke="black" stroke-width="1.5" stroke-linecap="round" stroke-linejoin="round"/>
</svg>
