<svg width="206" height="20" viewBox="0 0 206 20" fill="none" xmlns="http://www.w3.org/2000/svg">
<path d="M170.528 19.397H31.1738C23.6333 19.397 16.4016 16.4016 11.0696 11.0696C6.98464 6.98464 9.87779 0 15.6548 0H185.495C192.172 0 195.126 8.40566 189.917 12.5832C184.417 16.9935 177.577 19.397 170.528 19.397Z" fill="#54FF7F"/>
<path d="M66.3039 8.76748C66.7759 8.85548 67.1639 9.09148 67.4679 9.47548C67.7719 9.85948 67.9239 10.2995 67.9239 10.7955C67.9239 11.2435 67.8119 11.6395 67.5879 11.9835C67.3719 12.3195 67.0559 12.5835 66.6399 12.7755C66.2239 12.9675 65.7319 13.0635 65.1639 13.0635H61.5519V4.68748H65.0079C65.5759 4.68748 66.0639 4.77948 66.4719 4.96348C66.8879 5.14748 67.1999 5.40348 67.4079 5.73148C67.6239 6.05948 67.7319 6.43148 67.7319 6.84748C67.7319 7.33548 67.5999 7.74348 67.3359 8.07148C67.0799 8.39948 66.7359 8.63148 66.3039 8.76748ZM63.2319 8.14348H64.7679C65.1679 8.14348 65.4759 8.05548 65.6919 7.87948C65.9079 7.69548 66.0159 7.43548 66.0159 7.09948C66.0159 6.76348 65.9079 6.50348 65.6919 6.31948C65.4759 6.13548 65.1679 6.04348 64.7679 6.04348H63.2319V8.14348ZM64.9239 11.6955C65.3319 11.6955 65.6479 11.5995 65.8719 11.4075C66.1039 11.2155 66.2199 10.9435 66.2199 10.5915C66.2199 10.2315 66.0999 9.95148 65.8599 9.75148C65.6199 9.54348 65.2959 9.43948 64.8879 9.43948H63.2319V11.6955H64.9239ZM75.5388 6.41548V13.0635H73.8468V12.2235C73.6308 12.5115 73.3468 12.7395 72.9948 12.9075C72.6508 13.0675 72.2748 13.1475 71.8668 13.1475C71.3468 13.1475 70.8868 13.0395 70.4868 12.8235C70.0868 12.5995 69.7708 12.2755 69.5388 11.8515C69.3148 11.4195 69.2028 10.9075 69.2028 10.3155V6.41548H70.8828V10.0755C70.8828 10.6035 71.0148 11.0115 71.2788 11.2995C71.5428 11.5795 71.9028 11.7195 72.3588 11.7195C72.8228 11.7195 73.1868 11.5795 73.4508 11.2995C73.7148 11.0115 73.8468 10.6035 73.8468 10.0755V6.41548H75.5388ZM83.5564 6.41548L79.4404 16.2075H77.6524L79.0924 12.8955L76.4284 6.41548H78.3124L80.0284 11.0595L81.7684 6.41548H83.5564ZM90.2494 4.68748C91.1294 4.68748 91.9014 4.85948 92.5654 5.20348C93.2374 5.54748 93.7534 6.03948 94.1134 6.67948C94.4814 7.31148 94.6654 8.04748 94.6654 8.88748C94.6654 9.72748 94.4814 10.4635 94.1134 11.0955C93.7534 11.7195 93.2374 12.2035 92.5654 12.5475C91.9014 12.8915 91.1294 13.0635 90.2494 13.0635H87.3214V4.68748H90.2494ZM90.1894 11.6355C91.0694 11.6355 91.7494 11.3955 92.2294 10.9155C92.7094 10.4355 92.9494 9.75948 92.9494 8.88748C92.9494 8.01548 92.7094 7.33548 92.2294 6.84748C91.7494 6.35148 91.0694 6.10348 90.1894 6.10348H89.0014V11.6355H90.1894ZM102.103 9.59548C102.103 9.83548 102.087 10.0515 102.055 10.2435H97.195C97.235 10.7235 97.403 11.0995 97.699 11.3715C97.995 11.6435 98.359 11.7795 98.791 11.7795C99.415 11.7795 99.859 11.5115 100.123 10.9755H101.935C101.743 11.6155 101.375 12.1435 100.831 12.5595C100.287 12.9675 99.619 13.1715 98.827 13.1715C98.187 13.1715 97.611 13.0315 97.099 12.7515C96.595 12.4635 96.199 12.0595 95.911 11.5395C95.631 11.0195 95.491 10.4195 95.491 9.73948C95.491 9.05148 95.631 8.44748 95.911 7.92748C96.191 7.40748 96.583 7.00748 97.087 6.72748C97.591 6.44748 98.171 6.30748 98.827 6.30748C99.459 6.30748 100.023 6.44348 100.519 6.71548C101.023 6.98748 101.411 7.37548 101.683 7.87948C101.963 8.37548 102.103 8.94748 102.103 9.59548ZM100.363 9.11548C100.355 8.68348 100.199 8.33948 99.895 8.08348C99.591 7.81948 99.219 7.68748 98.779 7.68748C98.363 7.68748 98.011 7.81548 97.723 8.07148C97.443 8.31948 97.271 8.66748 97.207 9.11548H100.363ZM105.009 7.38748C105.225 7.06748 105.521 6.80748 105.897 6.60748C106.281 6.40748 106.717 6.30748 107.205 6.30748C107.773 6.30748 108.285 6.44748 108.741 6.72748C109.205 7.00748 109.569 7.40748 109.833 7.92748C110.105 8.43948 110.241 9.03548 110.241 9.71548C110.241 10.3955 110.105 10.9995 109.833 11.5275C109.569 12.0475 109.205 12.4515 108.741 12.7395C108.285 13.0275 107.773 13.1715 107.205 13.1715C106.709 13.1715 106.273 13.0755 105.897 12.8835C105.529 12.6835 105.233 12.4275 105.009 12.1155V13.0635H103.329V4.18348H105.009V7.38748ZM108.525 9.71548C108.525 9.31548 108.441 8.97148 108.273 8.68348C108.113 8.38748 107.897 8.16348 107.625 8.01148C107.361 7.85948 107.073 7.78348 106.761 7.78348C106.457 7.78348 106.169 7.86348 105.897 8.02348C105.633 8.17548 105.417 8.39948 105.249 8.69548C105.089 8.99148 105.009 9.33948 105.009 9.73948C105.009 10.1395 105.089 10.4875 105.249 10.7835C105.417 11.0795 105.633 11.3075 105.897 11.4675C106.169 11.6195 106.457 11.6955 106.761 11.6955C107.073 11.6955 107.361 11.6155 107.625 11.4555C107.897 11.2955 108.113 11.0675 108.273 10.7715C108.441 10.4755 108.525 10.1235 108.525 9.71548ZM117.642 9.59548C117.642 9.83548 117.626 10.0515 117.594 10.2435H112.734C112.774 10.7235 112.942 11.0995 113.238 11.3715C113.534 11.6435 113.898 11.7795 114.33 11.7795C114.954 11.7795 115.398 11.5115 115.662 10.9755H117.474C117.282 11.6155 116.914 12.1435 116.37 12.5595C115.826 12.9675 115.158 13.1715 114.366 13.1715C113.726 13.1715 113.15 13.0315 112.638 12.7515C112.134 12.4635 111.738 12.0595 111.45 11.5395C111.17 11.0195 111.03 10.4195 111.03 9.73948C111.03 9.05148 111.17 8.44748 111.45 7.92748C111.73 7.40748 112.122 7.00748 112.626 6.72748C113.13 6.44748 113.71 6.30748 114.366 6.30748C114.998 6.30748 115.562 6.44348 116.058 6.71548C116.562 6.98748 116.95 7.37548 117.222 7.87948C117.502 8.37548 117.642 8.94748 117.642 9.59548ZM115.902 9.11548C115.894 8.68348 115.738 8.33948 115.434 8.08348C115.13 7.81948 114.758 7.68748 114.318 7.68748C113.902 7.68748 113.55 7.81548 113.262 8.07148C112.982 8.31948 112.81 8.66748 112.746 9.11548H115.902ZM120.824 7.79548V11.0115C120.824 11.2355 120.876 11.3995 120.98 11.5035C121.092 11.5995 121.276 11.6475 121.532 11.6475H122.312V13.0635H121.256C119.84 13.0635 119.132 12.3755 119.132 10.9995V7.79548H118.34V6.41548H119.132V4.77148H120.824V6.41548H122.312V7.79548H120.824ZM125.057 11.6835H128.021V13.0635H123.149V11.7075L126.053 7.79548H123.161V6.41548H127.985V7.77148L125.057 11.6835Z" fill="black"/>
<path d="M146.552 9.58454L140.162 9.58454" stroke="black" stroke-width="1.5" stroke-linecap="round" stroke-linejoin="round"/>
<path d="M144.27 11.8665L146.552 9.58445" stroke="black" stroke-width="1.5" stroke-linecap="round" stroke-linejoin="round"/>
<path d="M144.27 7.30247L146.552 9.58447" stroke="black" stroke-width="1.5" stroke-linecap="round" stroke-linejoin="round"/>
</svg>
