<svg width="1350" height="508" viewBox="0 0 1350 508" fill="none" xmlns="http://www.w3.org/2000/svg">
<path d="M60 507.5H1290C1322.58 507.5 1349 481.085 1349 448.5V60C1349 27.4152 1322.58 1 1290 1H971.806C954.773 1 938.571 8.36106 927.367 21.1902L897.133 55.8098C885.929 68.6389 869.727 76 852.694 76H456.957C438.693 76 421.458 67.5412 410.285 53.0931L387.715 23.9069C376.541 9.45882 359.307 1 341.043 1H60C27.4152 1 1 27.4152 1 60V448.5C1 481.085 27.4152 507.5 60 507.5Z" fill="url(#paint0_linear_1221_236)" fill-opacity="0.04" stroke="url(#paint1_linear_1221_236)"/>
<defs>
<linearGradient id="paint0_linear_1221_236" x1="1154.68" y1="542.817" x2="992.274" y2="-343.82" gradientUnits="userSpaceOnUse">
<stop stop-color="white"/>
<stop offset="1" stop-color="white" stop-opacity="0"/>
</linearGradient>
<linearGradient id="paint1_linear_1221_236" x1="1349" y1="-123.118" x2="973.338" y2="652.076" gradientUnits="userSpaceOnUse">
<stop stop-color="#54FF7F"/>
<stop offset="1" stop-color="#54FF7F" stop-opacity="0"/>
</linearGradient>
</defs>
</svg>
