<svg width="514" height="292" viewBox="0 0 514 292" fill="none" xmlns="http://www.w3.org/2000/svg">
<mask id="mask0_4330_4736" style="mask-type:alpha" maskUnits="userSpaceOnUse" x="4" y="0" width="506" height="284">
<rect width="506" height="284" transform="translate(4)" fill="white"/>
</mask>
<g mask="url(#mask0_4330_4736)">
<path d="M810.813 503C810.813 357.023 752.824 390.079 649.603 286.857C546.381 183.636 406.383 125.647 260.406 125.647C114.43 125.647 -25.5684 183.636 -128.79 286.857C-232.011 390.079 -290 357.023 -290 503" stroke="url(#paint0_linear_4330_4736)"/>
<g filter="url(#filter0_b_4330_4736)">
<path d="M110.924 40C110.924 23.9837 123.908 11 139.924 11H175.97C180.86 11 185.67 12.2364 189.954 14.5941L214.612 28.1662C218.896 30.5239 223.706 31.7603 228.596 31.7603H255.924H286.546C291.923 31.7603 297.195 30.2651 301.772 27.4417L321.423 15.3186C326 12.4952 331.272 11 336.649 11H371.924C387.94 11 400.924 23.9837 400.924 40V223C400.924 239.016 387.94 252 371.924 252H139.924C123.908 252 110.924 239.016 110.924 223V40Z" fill="black" fill-opacity="0.08"/>
<path d="M400.424 40V223C400.424 238.74 387.664 251.5 371.924 251.5H139.924C124.184 251.5 111.424 238.74 111.424 223V40C111.424 24.2599 124.184 11.5 139.924 11.5H175.97C180.775 11.5 185.503 12.715 189.713 15.0321L214.371 28.6042C218.728 31.0026 223.622 32.2603 228.596 32.2603H255.924H286.546C292.016 32.2603 297.379 30.7393 302.034 27.8672L321.686 15.7442C326.184 12.9694 331.364 11.5 336.649 11.5H371.924C387.664 11.5 400.424 24.2599 400.424 40Z" stroke="url(#paint1_linear_4330_4736)"/>
</g>
<circle cx="450.628" cy="161.013" r="7.21056" fill="#54FF7F"/>
<circle cx="60.5704" cy="161.013" r="7.21056" fill="#54FF7F"/>
<path d="M233.989 23L276.009 23C286.416 23 296.413 18.9449 303.879 11.6953C308.267 7.4352 305.251 1.0511e-05 299.135 9.97641e-06L211.414 2.30758e-06C203.931 1.65334e-06 200.775 9.54255 206.784 14.004C214.651 19.8458 224.19 23 233.989 23Z" fill="#54FF7F"/>
<rect x="162.924" y="67" width="187" height="129" rx="31" fill="black" fill-opacity="0.1"/>
<path d="M211.035 126C210.568 126 210.135 125.887 209.735 125.66C209.335 125.42 209.015 125.107 208.775 124.72C208.548 124.32 208.435 123.88 208.435 123.4V122.56H210.595V123.34C210.595 123.473 210.641 123.593 210.735 123.7C210.841 123.793 210.961 123.84 211.095 123.84H220.175C220.308 123.84 220.421 123.793 220.515 123.7C220.608 123.593 220.655 123.473 220.655 123.34V120.38C220.655 120.233 220.608 120.113 220.515 120.02C220.421 119.927 220.308 119.88 220.175 119.88H211.035C210.568 119.88 210.135 119.767 209.735 119.54C209.335 119.3 209.015 118.987 208.775 118.6C208.548 118.2 208.435 117.76 208.435 117.28V114.2C208.435 113.72 208.548 113.287 208.775 112.9C209.015 112.5 209.335 112.187 209.735 111.96C210.135 111.72 210.568 111.6 211.035 111.6H220.235C220.701 111.6 221.135 111.72 221.535 111.96C221.935 112.187 222.248 112.5 222.475 112.9C222.715 113.287 222.835 113.72 222.835 114.2V115.04H220.655V114.26C220.655 114.127 220.608 114.013 220.515 113.92C220.421 113.813 220.308 113.76 220.175 113.76H211.095C210.961 113.76 210.841 113.813 210.735 113.92C210.641 114.013 210.595 114.127 210.595 114.26V117.22C210.595 117.367 210.641 117.487 210.735 117.58C210.841 117.673 210.961 117.72 211.095 117.72H220.235C220.701 117.72 221.135 117.84 221.535 118.08C221.935 118.307 222.248 118.62 222.475 119.02C222.715 119.407 222.835 119.84 222.835 120.32V123.4C222.835 123.88 222.715 124.32 222.475 124.72C222.248 125.107 221.935 125.42 221.535 125.66C221.135 125.887 220.701 126 220.235 126H211.035ZM227.499 126C227.019 126 226.586 125.88 226.199 125.64C225.812 125.4 225.499 125.087 225.259 124.7C225.019 124.313 224.899 123.88 224.899 123.4V117C224.899 116.52 225.019 116.087 225.259 115.7C225.499 115.313 225.812 115 226.199 114.76C226.586 114.52 227.019 114.4 227.499 114.4H236.659V116.56H227.559C227.426 116.56 227.306 116.613 227.199 116.72C227.106 116.813 227.059 116.927 227.059 117.06V123.34C227.059 123.473 227.106 123.593 227.199 123.7C227.306 123.793 227.426 123.84 227.559 123.84H236.699V126H227.499ZM238.747 126V117C238.747 116.52 238.867 116.087 239.107 115.7C239.347 115.313 239.66 115 240.047 114.76C240.447 114.52 240.88 114.4 241.347 114.4H247.827V116.56H241.407C241.274 116.56 241.154 116.613 241.047 116.72C240.954 116.813 240.907 116.927 240.907 117.06V126H238.747ZM251.816 126C251.336 126 250.896 125.88 250.496 125.64C250.109 125.4 249.796 125.087 249.556 124.7C249.329 124.313 249.216 123.88 249.216 123.4V119.12H258.836V117.06C258.836 116.927 258.789 116.813 258.696 116.72C258.602 116.613 258.489 116.56 258.356 116.56H249.216V114.4H258.416C258.896 114.4 259.329 114.52 259.716 114.76C260.116 114.987 260.429 115.3 260.656 115.7C260.896 116.1 261.016 116.533 261.016 117V126H251.816ZM251.876 123.84H258.836V121.14H251.376V123.34C251.376 123.473 251.422 123.593 251.516 123.7C251.622 123.793 251.742 123.84 251.876 123.84ZM263.143 130.6V114.4H272.342C272.823 114.4 273.256 114.52 273.643 114.76C274.043 115 274.356 115.313 274.583 115.7C274.823 116.087 274.943 116.52 274.943 117V123.4C274.943 123.88 274.823 124.313 274.583 124.7C274.356 125.087 274.043 125.4 273.643 125.64C273.256 125.88 272.823 126 272.342 126H265.303V130.6H263.143ZM265.803 123.84H272.283C272.416 123.84 272.529 123.793 272.622 123.7C272.729 123.593 272.783 123.473 272.783 123.34V117.06C272.783 116.927 272.729 116.813 272.622 116.72C272.529 116.613 272.416 116.56 272.283 116.56H265.803C265.669 116.56 265.549 116.613 265.443 116.72C265.349 116.813 265.303 116.927 265.303 117.06V123.34C265.303 123.473 265.349 123.593 265.443 123.7C265.549 123.793 265.669 123.84 265.803 123.84ZM276.56 126V114.4H278.72V126H276.56ZM276.56 112.76V110.6H278.72V112.76H276.56ZM281.033 126V114.4H290.233C290.713 114.4 291.146 114.52 291.533 114.76C291.933 115 292.246 115.313 292.473 115.7C292.713 116.087 292.833 116.52 292.833 117V126H290.673V117.06C290.673 116.927 290.62 116.813 290.513 116.72C290.42 116.613 290.306 116.56 290.173 116.56H283.693C283.56 116.56 283.44 116.613 283.333 116.72C283.24 116.813 283.193 116.927 283.193 117.06V126H281.033ZM296.661 130.58V128.4H303.761C303.894 128.4 304.007 128.347 304.101 128.24C304.207 128.147 304.261 128.033 304.261 127.9V126H297.221C296.754 126 296.321 125.887 295.921 125.66C295.521 125.42 295.201 125.1 294.961 124.7C294.734 124.3 294.621 123.867 294.621 123.4V117C294.621 116.52 294.741 116.087 294.981 115.7C295.221 115.313 295.534 115 295.921 114.76C296.321 114.52 296.754 114.4 297.221 114.4H303.821C304.301 114.4 304.734 114.52 305.121 114.76C305.521 115 305.834 115.313 306.061 115.7C306.301 116.087 306.421 116.52 306.421 117V127.98C306.421 128.46 306.301 128.893 306.061 129.28C305.834 129.68 305.521 129.993 305.121 130.22C304.734 130.46 304.301 130.58 303.821 130.58H296.661ZM297.281 123.84H303.761C303.894 123.84 304.007 123.793 304.101 123.7C304.207 123.593 304.261 123.473 304.261 123.34V117.06C304.261 116.927 304.207 116.813 304.101 116.72C304.007 116.613 303.894 116.56 303.761 116.56H297.281C297.147 116.56 297.027 116.613 296.921 116.72C296.827 116.813 296.781 116.927 296.781 117.06V123.34C296.781 123.473 296.827 123.593 296.921 123.7C297.027 123.793 297.147 123.84 297.281 123.84ZM194.814 150V135.6H206.594C207.074 135.6 207.514 135.72 207.914 135.96C208.314 136.187 208.628 136.5 208.854 136.9C209.094 137.287 209.214 137.72 209.214 138.2V147.4C209.214 147.88 209.094 148.32 208.854 148.72C208.628 149.107 208.314 149.42 207.914 149.66C207.514 149.887 207.074 150 206.594 150H194.814ZM197.454 147.84H206.554C206.688 147.84 206.801 147.793 206.894 147.7C206.988 147.593 207.034 147.473 207.034 147.34V138.26C207.034 138.127 206.988 138.013 206.894 137.92C206.801 137.813 206.688 137.76 206.554 137.76H197.454C197.321 137.76 197.208 137.813 197.114 137.92C197.021 138.013 196.974 138.127 196.974 138.26V147.34C196.974 147.473 197.021 147.593 197.114 147.7C197.208 147.793 197.321 147.84 197.454 147.84ZM213.974 150C213.494 150 213.054 149.88 212.654 149.64C212.267 149.4 211.954 149.087 211.714 148.7C211.487 148.313 211.374 147.88 211.374 147.4V143.12H220.994V141.06C220.994 140.927 220.947 140.813 220.854 140.72C220.761 140.613 220.647 140.56 220.514 140.56H211.374V138.4H220.574C221.054 138.4 221.487 138.52 221.874 138.76C222.274 138.987 222.587 139.3 222.814 139.7C223.054 140.1 223.174 140.533 223.174 141V150H213.974ZM214.034 147.84H220.994V145.14H213.534V147.34C213.534 147.473 213.581 147.593 213.674 147.7C213.781 147.793 213.901 147.84 214.034 147.84ZM227.881 150C227.401 150 226.961 149.88 226.561 149.64C226.174 149.4 225.861 149.087 225.621 148.7C225.394 148.313 225.281 147.88 225.281 147.4V134.74H227.441V138.4H232.201V140.56H227.441V147.34C227.441 147.473 227.487 147.593 227.581 147.7C227.687 147.793 227.807 147.84 227.941 147.84H232.201V150H227.881ZM236.337 150C235.857 150 235.423 149.88 235.037 149.64C234.65 149.4 234.337 149.087 234.097 148.7C233.857 148.313 233.737 147.88 233.737 147.4V141C233.737 140.52 233.857 140.087 234.097 139.7C234.337 139.313 234.65 139 235.037 138.76C235.423 138.52 235.857 138.4 236.337 138.4H242.937C243.417 138.4 243.85 138.52 244.237 138.76C244.637 138.987 244.95 139.3 245.177 139.7C245.417 140.1 245.537 140.533 245.537 141V145.28H235.897V147.34C235.897 147.473 235.943 147.593 236.037 147.7C236.143 147.793 236.263 147.84 236.397 147.84H245.537V150H236.337ZM235.897 143.26H243.357V141.06C243.357 140.927 243.31 140.813 243.217 140.72C243.123 140.613 243.01 140.56 242.877 140.56H236.397C236.263 140.56 236.143 140.613 236.037 140.72C235.943 140.813 235.897 140.927 235.897 141.06V143.26ZM253.525 150V135.6H266.725V137.76H255.705V141.72H264.565V143.88H255.705V150H253.525ZM270.438 150C269.958 150 269.525 149.88 269.138 149.64C268.752 149.4 268.438 149.087 268.198 148.7C267.958 148.313 267.838 147.88 267.838 147.4V141C267.838 140.52 267.958 140.087 268.198 139.7C268.438 139.313 268.752 139 269.138 138.76C269.525 138.52 269.958 138.4 270.438 138.4H277.038C277.518 138.4 277.952 138.52 278.338 138.76C278.738 138.987 279.052 139.3 279.278 139.7C279.518 140.1 279.638 140.533 279.638 141V145.28H269.998V147.34C269.998 147.473 270.045 147.593 270.138 147.7C270.245 147.793 270.365 147.84 270.498 147.84H279.638V150H270.438ZM269.998 143.26H277.458V141.06C277.458 140.927 277.412 140.813 277.318 140.72C277.225 140.613 277.112 140.56 276.978 140.56H270.498C270.365 140.56 270.245 140.613 270.138 140.72C270.045 140.813 269.998 140.927 269.998 141.06V143.26ZM283.915 150C283.435 150 283.002 149.88 282.615 149.64C282.228 149.4 281.915 149.087 281.675 148.7C281.435 148.313 281.315 147.88 281.315 147.4V141C281.315 140.52 281.435 140.087 281.675 139.7C281.915 139.313 282.228 139 282.615 138.76C283.002 138.52 283.435 138.4 283.915 138.4H290.515C290.995 138.4 291.428 138.52 291.815 138.76C292.215 138.987 292.528 139.3 292.755 139.7C292.995 140.1 293.115 140.533 293.115 141V145.28H283.475V147.34C283.475 147.473 283.522 147.593 283.615 147.7C283.722 147.793 283.842 147.84 283.975 147.84H293.115V150H283.915ZM283.475 143.26H290.935V141.06C290.935 140.927 290.888 140.813 290.795 140.72C290.702 140.613 290.588 140.56 290.455 140.56H283.975C283.842 140.56 283.722 140.613 283.615 140.72C283.522 140.813 283.475 140.927 283.475 141.06V143.26ZM297.203 150C296.723 150 296.283 149.887 295.883 149.66C295.496 149.42 295.183 149.1 294.943 148.7C294.716 148.3 294.603 147.867 294.603 147.4V141C294.603 140.52 294.716 140.087 294.943 139.7C295.183 139.313 295.496 139 295.883 138.76C296.283 138.52 296.723 138.4 297.203 138.4H304.243V134.6H306.403V150H297.203ZM297.283 147.84H303.763C303.896 147.84 304.009 147.793 304.103 147.7C304.196 147.593 304.243 147.473 304.243 147.34V141.06C304.243 140.927 304.196 140.813 304.103 140.72C304.009 140.613 303.896 140.56 303.763 140.56H297.283C297.149 140.56 297.029 140.613 296.923 140.72C296.829 140.813 296.783 140.927 296.783 141.06V147.34C296.783 147.473 296.829 147.593 296.923 147.7C297.029 147.793 297.149 147.84 297.283 147.84ZM311.042 150C310.562 150 310.129 149.88 309.742 149.64C309.356 149.4 309.042 149.087 308.802 148.7C308.562 148.313 308.442 147.88 308.442 147.4V147.1H310.602V147.34C310.602 147.473 310.649 147.593 310.742 147.7C310.849 147.793 310.969 147.84 311.102 147.84H317.582C317.716 147.84 317.829 147.793 317.922 147.7C318.016 147.593 318.062 147.473 318.062 147.34V145.78C318.062 145.647 318.016 145.533 317.922 145.44C317.829 145.333 317.716 145.28 317.582 145.28H311.042C310.562 145.28 310.129 145.167 309.742 144.94C309.356 144.7 309.042 144.387 308.802 144C308.562 143.6 308.442 143.16 308.442 142.68V141C308.442 140.52 308.562 140.087 308.802 139.7C309.042 139.313 309.356 139 309.742 138.76C310.129 138.52 310.562 138.4 311.042 138.4H317.642C318.122 138.4 318.556 138.52 318.942 138.76C319.342 139 319.656 139.313 319.882 139.7C320.122 140.087 320.242 140.52 320.242 141V141.3H318.062V141.06C318.062 140.927 318.016 140.813 317.922 140.72C317.829 140.613 317.716 140.56 317.582 140.56H311.102C310.969 140.56 310.849 140.613 310.742 140.72C310.649 140.813 310.602 140.927 310.602 141.06V142.62C310.602 142.753 310.649 142.873 310.742 142.98C310.849 143.073 310.969 143.12 311.102 143.12H317.642C318.122 143.12 318.556 143.24 318.942 143.48C319.342 143.707 319.656 144.02 319.882 144.42C320.122 144.807 320.242 145.24 320.242 145.72V147.4C320.242 147.88 320.122 148.313 319.882 148.7C319.656 149.087 319.342 149.4 318.942 149.64C318.556 149.88 318.122 150 317.642 150H311.042Z" fill="white"/>
</g>
<defs>
<filter id="filter0_b_4330_4736" x="51.9238" y="-48" width="408" height="359" filterUnits="userSpaceOnUse" color-interpolation-filters="sRGB">
<feFlood flood-opacity="0" result="BackgroundImageFix"/>
<feGaussianBlur in="BackgroundImageFix" stdDeviation="29.5"/>
<feComposite in2="SourceAlpha" operator="in" result="effect1_backgroundBlur_4330_4736"/>
<feBlend mode="normal" in="SourceGraphic" in2="effect1_backgroundBlur_4330_4736" result="shape"/>
</filter>
<linearGradient id="paint0_linear_4330_4736" x1="-405.712" y1="630.73" x2="483.882" y2="1063.32" gradientUnits="userSpaceOnUse">
<stop stop-color="#54FF7F" stop-opacity="0"/>
<stop offset="0.423337" stop-color="#54FF7F"/>
<stop offset="1" stop-color="#54FF7F" stop-opacity="0"/>
</linearGradient>
<linearGradient id="paint1_linear_4330_4736" x1="400.924" y1="-48.0569" x2="173.736" y2="163.91" gradientUnits="userSpaceOnUse">
<stop stop-color="#54FF7F"/>
<stop offset="1" stop-color="#54FF7F" stop-opacity="0"/>
</linearGradient>
</defs>
</svg>
