<svg width="112" height="40" viewBox="0 0 112 40" fill="none" xmlns="http://www.w3.org/2000/svg">
<path d="M28.5597 27.1756C30.6408 29.2567 34.0256 29.2567 36.1068 27.1756L37.2194 26.063C40.6243 22.658 40.6243 17.115 37.2194 13.7101L36.1068 12.5975C34.0256 10.5163 30.6408 10.5163 28.5597 12.5975L24.4946 16.6626L26.3378 18.5058L30.4029 14.4407C31.4652 13.3783 33.1978 13.3783 34.2602 14.4407L35.3728 15.5533C37.7623 17.9428 37.7623 21.8303 35.3728 24.2197L34.2602 25.3324C33.1978 26.3947 31.4652 26.3947 30.4029 25.3324L21.7297 16.6592L27.1756 11.2134C29.2567 9.13226 29.2567 5.74746 27.1756 3.66631L26.063 2.55368C22.658 -0.851227 17.115 -0.851227 13.7101 2.55368L12.5975 3.66631C10.5163 5.74746 10.5163 9.13226 12.5975 11.2134L16.6626 15.2785L18.5058 13.4353L14.4407 9.3702C13.3783 8.30784 13.3783 6.57522 14.4407 5.51287L15.5533 4.40024C17.9428 2.01077 21.8303 2.01077 24.2197 4.40024L25.3324 5.51287C26.3947 6.57522 26.3947 8.30784 25.3324 9.3702L16.6592 18.0433L11.2134 12.5975C9.13226 10.5163 5.74746 10.5163 3.66631 12.5975L2.55368 13.7101C-0.851227 17.115 -0.851227 22.658 2.55368 26.063L3.66631 27.1756C5.74746 29.2567 9.13226 29.2567 11.2134 27.1756L15.2785 23.1105L13.4353 21.2673L9.3702 25.3324C8.30784 26.3947 6.57522 26.3947 5.51287 25.3324L4.40024 24.2197C2.01077 21.8303 2.01077 17.9428 4.40024 15.5533L5.51287 14.4407C6.57522 13.3783 8.30784 13.3783 9.3702 14.4407L18.0433 23.1138L12.5975 28.5597C10.5163 30.6408 10.5163 34.0256 12.5975 36.1068L13.7101 37.2194C17.115 40.6243 22.658 40.6243 26.063 37.2194L27.1756 36.1068C29.2567 34.0256 29.2567 30.6408 27.1756 28.5597L23.1105 24.4946L21.2673 26.3378L25.3324 30.4029C26.3947 31.4652 26.3947 33.1978 25.3324 34.2602L24.2197 35.3728C21.8303 37.7623 17.9428 37.7623 15.5533 35.3728L14.4407 34.2602C13.3783 33.1978 13.3783 31.4652 14.4407 30.4029L23.1138 21.7297L28.5597 27.1756ZM19.8865 21.2673L18.5025 19.8832L19.8865 18.4991L21.2706 19.8832L19.8865 21.2673Z" fill="#00FF92"/>
<path d="M55.4437 10.0603C61.2012 10.0603 64.6028 13.6529 64.6028 19.7556C64.6028 25.8583 61.2146 29.4643 55.4437 29.4643H48.9221V10.0603H55.4437ZM51.3417 27.2893H55.2829C59.6797 27.2893 62.1295 24.5982 62.1295 19.7857C62.1295 14.9733 59.6965 12.242 55.2829 12.242H51.3417V27.2926V27.2893Z" fill="white"/>
<path d="M68.8221 27.0982H68.7685V29.4643H66.5365V10.0603H68.8757V17.8219H68.9293C69.804 16.22 71.4294 15.238 73.4066 15.238C76.9288 15.238 79.3116 18.09 79.3116 22.4735C79.3116 26.857 76.9456 29.7089 73.3664 29.7089C71.3221 29.7089 69.7202 28.7136 68.8221 27.0982ZM68.8623 22.4701C68.8623 25.5902 70.5446 27.6479 72.9106 27.6479C75.2767 27.6479 76.9188 25.6706 76.9188 22.4701C76.9188 19.2696 75.3872 17.2924 72.9106 17.2924C70.434 17.2924 68.8623 19.3635 68.8623 22.4701Z" fill="white"/>
<path d="M92.4318 25.4597C92.0297 27.9061 89.6603 29.7091 86.6073 29.7091C82.5992 29.7091 80.1661 26.9242 80.1661 22.5273C80.1661 18.1304 82.6394 15.2383 86.5001 15.2383C90.3608 15.2383 92.6061 17.983 92.6061 22.219V23.1071H82.5724V23.2412C82.5724 25.9188 84.1475 27.6783 86.6609 27.6783C88.4371 27.6783 89.7408 26.7768 90.1295 25.4597H92.4285H92.4318ZM82.5858 21.2773H90.1831C90.1295 18.9381 88.6616 17.2692 86.4565 17.2692C84.2514 17.2692 82.7299 18.9515 82.5824 21.2773H82.5858Z" fill="white"/>
<path d="M97.2275 12.105V15.4797H99.9454V17.4034H97.2275V25.7146C97.2275 26.9914 97.7671 27.5712 98.9635 27.5712C99.2316 27.5712 99.7712 27.531 99.932 27.5041V29.468C99.6505 29.535 99.0037 29.5752 98.4541 29.5752C95.887 29.5752 94.8883 28.5263 94.8883 25.8352V17.4034H92.8038V15.4797H94.8883V12.105H97.2275Z" fill="white"/>
<path d="M106.581 15.2382C109.473 15.2382 111.598 16.9608 111.705 19.3268H109.473C109.312 17.9829 108.223 17.1484 106.501 17.1484C104.778 17.1484 103.662 17.9963 103.662 19.2195C103.662 20.1881 104.403 20.8349 105.988 21.237L108.153 21.7598C110.978 22.4736 112 23.4958 112 25.5535C112 27.9865 109.701 29.7091 106.434 29.7091C103.367 29.7091 101.229 28.0401 100.988 25.5669H103.327C103.582 27.018 104.684 27.7988 106.581 27.7988C108.478 27.7988 109.647 26.9912 109.647 25.7277C109.647 24.7324 109.068 24.1962 107.496 23.7773L105.036 23.1439C102.576 22.5105 101.363 21.2471 101.363 19.3368C101.363 16.944 103.501 15.2349 106.581 15.2349V15.2382Z" fill="white"/>
</svg>
