<svg width="1440" height="682" viewBox="0 0 1440 682" fill="none" xmlns="http://www.w3.org/2000/svg">
<path d="M1291.89 367.107C1329.5 404.713 1362.98 429.907 1392.06 449.865C1401.2 456.142 1409.9 461.898 1418.15 467.356C1436.15 479.261 1452.01 489.751 1465.67 501.163C1485.57 517.782 1500.76 536.322 1510.99 563.954C1521.19 591.516 1526.47 628.153 1526.5 681H725.5L-75.4998 681C-75.4668 628.152 -70.1917 591.515 -59.9882 563.953C-49.759 536.322 -34.5656 517.782 -14.6689 501.163C-1.00619 489.751 14.8517 479.261 32.8489 467.356C41.0996 461.898 49.7999 456.142 58.9445 449.865C88.0154 429.907 121.502 404.713 159.108 367.107C309.324 216.891 513.062 132.5 725.5 132.5C937.938 132.5 1141.68 216.891 1291.89 367.107Z" stroke="url(#paint0_linear_4328_4716)"/>
<g filter="url(#filter0_b_4328_4716)">
<path d="M1126.48 204.506C1137.8 193.181 1156.16 193.181 1167.49 204.506L1186.82 223.837C1191.57 228.59 1194.53 234.847 1195.18 241.538L1197.62 266.658C1198.35 274.174 1201.98 281.108 1207.74 285.987L1224.5 300.172L1241.14 314.906C1245.6 318.86 1251.18 321.341 1257.11 322.011L1278.47 324.428C1285 325.165 1291.08 328.095 1295.72 332.738L1315.23 352.25C1326.56 363.575 1326.56 381.937 1315.23 393.262L1219.26 489.231C1207.94 500.557 1189.58 500.557 1178.25 489.231L1030.51 341.487C1019.18 330.162 1019.18 311.8 1030.51 300.475L1126.48 204.506Z" fill="black" fill-opacity="0.08"/>
<path d="M1314.88 392.909L1218.91 488.878C1207.78 500.008 1189.73 500.008 1178.6 488.878L1030.86 341.134C1019.73 330.004 1019.73 311.959 1030.86 300.829L1126.83 204.86C1137.96 193.73 1156 193.73 1167.13 204.86L1186.46 224.19C1191.14 228.862 1194.04 235.011 1194.68 241.586L1197.12 266.706C1197.86 274.351 1201.56 281.405 1207.42 286.368L1224.17 300.546L1224.18 300.553L1240.81 315.28C1245.35 319.302 1251.02 321.826 1257.05 322.508L1278.42 324.924C1284.83 325.65 1290.8 328.529 1295.37 333.091L1314.88 352.604C1326.01 363.734 1326.01 381.779 1314.88 392.909Z" stroke="url(#paint1_linear_4328_4716)"/>
</g>
<g filter="url(#filter1_b_4328_4716)">
<path d="M310.263 204.506C298.938 193.181 280.576 193.181 269.251 204.506L249.92 223.837C245.167 228.59 242.212 234.847 241.562 241.538L239.121 266.658C238.39 274.174 234.757 281.108 228.994 285.987L212.238 300.172L195.599 314.906C191.134 318.86 185.559 321.341 179.633 322.011L158.266 324.428C151.742 325.165 145.662 328.095 141.019 332.738L121.507 352.25C110.181 363.575 110.181 381.937 121.507 393.262L217.476 489.231C228.801 500.557 247.163 500.557 258.488 489.231L406.232 341.487C417.557 330.162 417.557 311.8 406.232 300.475L310.263 204.506Z" fill="black" fill-opacity="0.08"/>
<path d="M121.86 392.909L217.829 488.878C228.959 500.008 247.004 500.008 258.134 488.878L405.878 341.134C417.008 330.004 417.008 311.959 405.878 300.829L309.909 204.86C298.779 193.73 280.734 193.73 269.604 204.86L250.273 224.19C245.602 228.862 242.699 235.011 242.06 241.586L239.618 266.706C238.875 274.351 235.18 281.405 229.317 286.368L212.57 300.546L212.561 300.553L195.93 315.28C191.388 319.302 185.717 321.826 179.689 322.508L158.322 324.924C151.911 325.65 145.935 328.529 141.373 333.091L121.86 352.604C110.73 363.734 110.73 381.779 121.86 392.909Z" stroke="url(#paint2_linear_4328_4716)"/>
</g>
<path d="M234.542 374.326C234.212 374.656 233.825 374.882 233.382 375.005C232.93 375.118 232.482 375.123 232.039 375.019C231.596 374.896 231.204 374.665 230.865 374.326L230.271 373.732L231.798 372.205L232.35 372.756C232.444 372.85 232.562 372.902 232.703 372.912C232.845 372.902 232.963 372.85 233.057 372.756L239.477 366.336C239.572 366.241 239.619 366.128 239.619 365.996C239.609 365.855 239.558 365.737 239.463 365.643L237.37 363.55C237.267 363.446 237.149 363.394 237.017 363.394C236.885 363.394 236.772 363.441 236.677 363.535L230.214 369.998C229.884 370.328 229.498 370.555 229.055 370.677C228.602 370.79 228.154 370.795 227.711 370.691C227.268 370.569 226.877 370.338 226.537 369.998L224.36 367.821C224.02 367.481 223.794 367.095 223.681 366.661C223.568 366.208 223.572 365.76 223.695 365.317C223.808 364.865 224.03 364.474 224.36 364.144L230.865 357.638C231.195 357.308 231.586 357.087 232.039 356.973C232.482 356.851 232.925 356.851 233.368 356.973C233.811 357.077 234.202 357.299 234.542 357.638L235.136 358.232L233.594 359.774L233.043 359.222C232.949 359.128 232.835 359.081 232.703 359.081C232.562 359.071 232.444 359.114 232.35 359.208L225.929 365.628C225.835 365.723 225.788 365.845 225.788 365.996C225.788 366.128 225.835 366.241 225.929 366.336L228.022 368.429C228.126 368.532 228.244 368.584 228.376 368.584C228.517 368.575 228.635 368.523 228.729 368.429L235.192 361.966C235.522 361.636 235.914 361.414 236.366 361.301C236.809 361.178 237.252 361.178 237.696 361.301C238.139 361.405 238.53 361.626 238.869 361.966L241.047 364.144C241.387 364.483 241.613 364.879 241.726 365.332C241.839 365.765 241.839 366.208 241.726 366.661C241.604 367.104 241.377 367.491 241.047 367.821L234.542 374.326ZM247.641 367.733L236.185 356.277L242.691 349.772C243.03 349.433 243.422 349.211 243.865 349.107C244.317 348.994 244.76 348.994 245.194 349.107C245.637 349.211 246.028 349.433 246.368 349.772L250.893 354.298C251.233 354.637 251.454 355.028 251.558 355.471C251.671 355.905 251.671 356.348 251.558 356.801C251.454 357.244 251.233 357.635 250.893 357.974L245.915 362.953L249.168 366.205L247.641 367.733ZM244.741 361.072L249.323 356.49C249.418 356.395 249.465 356.282 249.465 356.15C249.465 355.999 249.418 355.877 249.323 355.782L244.883 351.342C244.789 351.248 244.671 351.205 244.529 351.215C244.388 351.205 244.27 351.248 244.176 351.342L239.594 355.924C239.499 356.018 239.452 356.141 239.452 356.292C239.452 356.424 239.499 356.537 239.594 356.631L244.034 361.072C244.129 361.166 244.246 361.218 244.388 361.227C244.529 361.218 244.647 361.166 244.741 361.072ZM255.575 353.293C255.236 353.632 254.845 353.854 254.401 353.957C253.958 354.061 253.515 354.061 253.072 353.957C252.629 353.854 252.238 353.632 251.898 353.293L247.373 348.767C247.033 348.428 246.812 348.036 246.708 347.593C246.604 347.15 246.604 346.707 246.708 346.264C246.812 345.821 247.033 345.43 247.373 345.09L252.04 340.423C252.379 340.084 252.77 339.862 253.213 339.759C253.657 339.636 254.1 339.636 254.543 339.759C254.995 339.872 255.387 340.093 255.717 340.423L260.242 344.949C260.582 345.288 260.803 345.679 260.907 346.123C261.02 346.556 261.02 346.999 260.907 347.452C260.803 347.895 260.582 348.286 260.242 348.626L255.575 353.293ZM254.09 351.723L258.672 347.141C258.767 347.046 258.814 346.933 258.814 346.801C258.804 346.66 258.752 346.542 258.658 346.448L254.218 342.007C254.123 341.913 254.01 341.866 253.878 341.866C253.737 341.856 253.619 341.899 253.525 341.993L248.943 346.575C248.848 346.669 248.801 346.792 248.801 346.943C248.801 347.075 248.848 347.188 248.943 347.282L253.383 351.723C253.477 351.817 253.595 351.869 253.737 351.878C253.878 351.869 253.996 351.817 254.09 351.723ZM263.322 345.546L256.958 339.182C256.618 338.843 256.397 338.451 256.293 338.008C256.189 337.565 256.189 337.122 256.293 336.679C256.406 336.226 256.628 335.835 256.958 335.505L261.54 330.923L263.067 332.45L258.527 336.99C258.433 337.084 258.386 337.207 258.386 337.358C258.386 337.49 258.433 337.603 258.527 337.697L264.849 344.019L263.322 345.546ZM272.48 336.388C272.141 336.727 271.745 336.953 271.292 337.066C270.849 337.17 270.406 337.17 269.963 337.066C269.529 336.953 269.143 336.727 268.803 336.388L259.851 327.436L261.379 325.908L263.967 328.496L267.332 325.13L268.86 326.658L265.494 330.024L270.288 334.818C270.382 334.912 270.5 334.964 270.642 334.973C270.783 334.964 270.901 334.912 270.995 334.818L274.007 331.806L275.535 333.333L272.48 336.388ZM228.546 414.263L218.364 404.081L226.283 396.161C226.613 395.831 227.004 395.609 227.457 395.496C227.9 395.374 228.343 395.374 228.786 395.496C229.229 395.6 229.621 395.822 229.96 396.161L232.039 398.24C232.162 398.362 232.27 398.499 232.364 398.65C232.468 398.791 232.543 398.942 232.591 399.103C233.043 399.178 233.434 399.286 233.764 399.428C234.094 399.55 234.377 399.73 234.613 399.965L236.89 402.242C237.229 402.582 237.455 402.978 237.569 403.43C237.682 403.864 237.682 404.307 237.569 404.759C237.446 405.203 237.215 405.594 236.876 405.933L228.546 414.263ZM228.899 410.855L235.32 404.434C235.414 404.34 235.461 404.227 235.461 404.095C235.452 403.953 235.4 403.835 235.306 403.741L233.114 401.549C233.02 401.455 232.906 401.408 232.774 401.408C232.633 401.398 232.515 401.441 232.421 401.535L226 407.956C225.906 408.05 225.859 408.172 225.859 408.323C225.859 408.455 225.906 408.568 226 408.663L228.192 410.855C228.287 410.949 228.405 411.001 228.546 411.01C228.687 411.001 228.805 410.949 228.899 410.855ZM224.473 406.428L230.469 400.432C230.564 400.338 230.611 400.225 230.611 400.093C230.601 399.951 230.549 399.833 230.455 399.739L228.461 397.745C228.367 397.651 228.254 397.604 228.122 397.604C227.98 397.594 227.862 397.637 227.768 397.731L221.772 403.727C221.678 403.821 221.63 403.944 221.63 404.095C221.63 404.227 221.678 404.34 221.772 404.434L223.766 406.428C223.86 406.522 223.978 406.574 224.119 406.584C224.261 406.574 224.379 406.522 224.473 406.428ZM242.038 400.771C241.699 401.11 241.307 401.332 240.864 401.436C240.421 401.539 239.978 401.539 239.535 401.436C239.092 401.332 238.7 401.11 238.361 400.771L233.836 396.245C233.496 395.906 233.275 395.515 233.171 395.072C233.067 394.629 233.067 394.185 233.171 393.742C233.275 393.299 233.496 392.908 233.836 392.568L238.502 387.902C238.842 387.562 239.233 387.341 239.676 387.237C240.119 387.114 240.562 387.114 241.006 387.237C241.458 387.35 241.849 387.572 242.179 387.902L245.206 390.928L238.389 397.745L239.846 399.201C239.94 399.295 240.058 399.347 240.199 399.357C240.341 399.347 240.459 399.295 240.553 399.201L247.016 392.738L248.543 394.266L242.038 400.771ZM236.961 396.316L242.236 391.041L240.68 389.485C240.586 389.391 240.473 389.344 240.341 389.344C240.199 389.335 240.082 389.377 239.987 389.471L235.405 394.053C235.311 394.148 235.264 394.27 235.264 394.421C235.264 394.553 235.311 394.666 235.405 394.761L236.961 396.316ZM251.858 390.951C251.519 391.29 251.123 391.517 250.67 391.63C250.227 391.733 249.784 391.733 249.341 391.63C248.907 391.517 248.52 391.29 248.181 390.951L239.229 381.999L240.756 380.472L243.344 383.06L246.71 379.694L248.238 381.221L244.872 384.587L249.666 389.381C249.76 389.475 249.878 389.527 250.02 389.537C250.161 389.527 250.279 389.475 250.373 389.381L253.385 386.369L254.913 387.896L251.858 390.951ZM257.921 384.888C257.582 385.227 257.186 385.454 256.733 385.567C256.29 385.671 255.847 385.671 255.404 385.567C254.97 385.454 254.583 385.227 254.244 384.888L245.292 375.936L246.819 374.409L249.407 376.997L252.773 373.631L254.301 375.158L250.935 378.524L255.729 383.318C255.823 383.412 255.941 383.464 256.082 383.474C256.224 383.464 256.342 383.412 256.436 383.318L259.448 380.306L260.976 381.833L257.921 384.888ZM262.117 380.692L253.915 372.489L255.442 370.962L263.645 379.164L262.117 380.692ZM252.755 371.329L251.228 369.802L252.755 368.275L254.283 369.802L252.755 371.329ZM265.281 377.528L257.078 369.326L263.584 362.82C263.923 362.481 264.314 362.259 264.757 362.156C265.21 362.043 265.653 362.043 266.087 362.156C266.53 362.259 266.921 362.481 267.261 362.82L273.625 369.184L272.097 370.712L265.776 364.39C265.681 364.296 265.564 364.253 265.422 364.263C265.281 364.253 265.163 364.296 265.069 364.39L260.486 368.972C260.392 369.066 260.345 369.189 260.345 369.34C260.345 369.472 260.392 369.585 260.486 369.679L266.808 376.001L265.281 377.528ZM279.57 369.716L278.028 368.175L283.049 363.154C283.143 363.06 283.185 362.942 283.176 362.801C283.185 362.659 283.143 362.542 283.049 362.447L281.705 361.104L276.727 366.082C276.397 366.412 276.011 366.638 275.567 366.761C275.115 366.874 274.662 366.874 274.21 366.761C273.767 366.638 273.38 366.412 273.05 366.082L268.525 361.556C268.185 361.217 267.964 360.826 267.86 360.383C267.756 359.939 267.756 359.496 267.86 359.053C267.973 358.601 268.195 358.209 268.525 357.879L273.192 353.212C273.531 352.873 273.922 352.651 274.365 352.548C274.818 352.435 275.261 352.435 275.695 352.548C276.138 352.651 276.529 352.873 276.869 353.212L284.633 360.976C284.972 361.316 285.194 361.707 285.297 362.15C285.42 362.593 285.42 363.037 285.297 363.48C285.194 363.923 284.972 364.314 284.633 364.653L279.57 369.716ZM275.242 364.512L279.824 359.93C279.918 359.836 279.966 359.723 279.966 359.591C279.966 359.44 279.918 359.317 279.824 359.223L275.384 354.782C275.289 354.688 275.171 354.646 275.03 354.655C274.889 354.646 274.771 354.688 274.676 354.782L270.094 359.364C270 359.459 269.953 359.581 269.953 359.732C269.953 359.864 270 359.977 270.094 360.071L274.535 364.512C274.629 364.606 274.747 364.658 274.889 364.668C275.03 364.658 275.148 364.606 275.242 364.512ZM288.884 353.924L280.541 345.581C280.201 345.241 279.975 344.855 279.862 344.421C279.749 343.968 279.749 343.525 279.862 343.092C279.975 342.639 280.201 342.243 280.541 341.904L287.032 335.412C287.371 335.073 287.767 334.847 288.22 334.734C288.663 334.611 289.106 334.611 289.549 334.734C289.992 334.837 290.384 335.059 290.723 335.398L299.067 343.742L297.525 345.284L293.961 341.72L286.848 348.833L290.412 352.397L288.884 353.924ZM285.321 347.306L292.434 340.192L289.224 336.982C289.13 336.888 289.016 336.841 288.884 336.841C288.743 336.831 288.625 336.874 288.531 336.968L282.11 343.389C282.016 343.483 281.969 343.605 281.969 343.756C281.969 343.888 282.016 344.001 282.11 344.096L285.321 347.306ZM300.678 342.131L290.51 331.963L298.84 323.633C299.179 323.293 299.575 323.067 300.028 322.954C300.48 322.841 300.928 322.846 301.371 322.968C301.814 323.072 302.201 323.289 302.531 323.619L305.387 326.475C305.727 326.815 305.953 327.211 306.066 327.663C306.179 328.097 306.179 328.54 306.066 328.993C305.944 329.436 305.713 329.827 305.373 330.167L298.585 336.983L302.205 340.603L300.678 342.131ZM297.383 335.074L303.804 328.653C303.898 328.559 303.945 328.446 303.945 328.314C303.945 328.182 303.898 328.069 303.804 327.974L301.032 325.203C300.937 325.108 300.824 325.061 300.692 325.061C300.551 325.052 300.433 325.094 300.339 325.188L293.918 331.609C293.824 331.703 293.777 331.826 293.777 331.977C293.777 332.109 293.824 332.222 293.918 332.316L296.69 335.088C296.784 335.182 296.897 335.229 297.029 335.229C297.171 335.22 297.289 335.168 297.383 335.074ZM311.822 330.987L301.64 320.804L303.167 319.277L313.35 329.459L311.822 330.987Z" fill="white"/>
<path d="M1118.04 293.867L1128.23 283.685L1136.56 292.015C1136.9 292.354 1137.12 292.75 1137.24 293.203C1137.36 293.646 1137.36 294.089 1137.24 294.532C1137.13 294.975 1136.91 295.366 1136.57 295.706L1130.07 302.211C1129.73 302.55 1129.33 302.777 1128.88 302.89C1128.44 303.003 1128 303.003 1127.55 302.89C1127.11 302.767 1126.71 302.536 1126.37 302.197L1118.04 293.867ZM1121.44 294.207L1127.87 300.641C1127.97 300.736 1128.08 300.783 1128.21 300.783C1128.35 300.773 1128.47 300.721 1128.57 300.627L1134.99 294.207C1135.08 294.112 1135.13 293.999 1135.13 293.867C1135.14 293.726 1135.1 293.608 1135 293.514L1128.57 287.079C1128.47 286.985 1128.35 286.942 1128.21 286.952C1128.08 286.952 1127.97 286.999 1127.87 287.093L1121.45 293.514C1121.36 293.608 1121.31 293.726 1121.3 293.867C1121.3 293.999 1121.34 294.112 1121.44 294.207ZM1131.58 307.401C1131.24 307.062 1131.02 306.67 1130.91 306.227C1130.81 305.784 1130.81 305.341 1130.91 304.898C1131.02 304.455 1131.24 304.063 1131.58 303.724L1136.1 299.199C1136.44 298.859 1136.83 298.638 1137.28 298.534C1137.72 298.43 1138.16 298.43 1138.61 298.534C1139.05 298.638 1139.44 298.859 1139.78 299.199L1144.45 303.865C1144.79 304.205 1145.01 304.596 1145.11 305.039C1145.24 305.482 1145.24 305.925 1145.11 306.369C1145 306.821 1144.78 307.212 1144.45 307.542L1141.42 310.569L1134.61 303.752L1133.15 305.209C1133.05 305.303 1133 305.421 1132.99 305.563C1133 305.704 1133.05 305.822 1133.15 305.916L1139.61 312.379L1138.08 313.906L1131.58 307.401ZM1136.03 302.324L1141.31 307.599L1142.86 306.043C1142.96 305.949 1143.01 305.836 1143.01 305.704C1143.01 305.563 1142.97 305.445 1142.88 305.35L1138.3 300.768C1138.2 300.674 1138.08 300.627 1137.93 300.627C1137.8 300.627 1137.68 300.674 1137.59 300.768L1136.03 302.324ZM1141.07 316.889C1140.73 316.55 1140.51 316.158 1140.4 315.715C1140.3 315.272 1140.3 314.829 1140.4 314.386C1140.51 313.943 1140.73 313.551 1141.07 313.212L1145.59 308.686C1145.93 308.347 1146.32 308.126 1146.77 308.022C1147.21 307.918 1147.65 307.918 1148.1 308.022C1148.54 308.126 1148.93 308.347 1149.27 308.686L1155.75 315.164L1154.22 316.691L1147.78 310.256C1147.69 310.162 1147.57 310.115 1147.42 310.115C1147.28 310.115 1147.17 310.162 1147.08 310.256L1142.64 314.697C1142.54 314.791 1142.49 314.909 1142.48 315.05C1142.49 315.192 1142.54 315.31 1142.64 315.404L1149.1 321.867L1147.57 323.394L1141.07 316.889ZM1150.54 326.363C1150.2 326.024 1149.98 325.632 1149.88 325.189C1149.77 324.746 1149.77 324.303 1149.88 323.86C1149.98 323.417 1150.2 323.026 1150.54 322.686L1155.07 318.161C1155.41 317.821 1155.8 317.6 1156.24 317.496C1156.68 317.392 1157.13 317.392 1157.57 317.496C1158.01 317.6 1158.4 317.821 1158.74 318.161L1163.41 322.828C1163.75 323.167 1163.97 323.558 1164.07 324.001C1164.2 324.444 1164.2 324.888 1164.07 325.331C1163.96 325.783 1163.74 326.174 1163.41 326.504L1160.38 329.531L1153.57 322.714L1152.11 324.171C1152.02 324.265 1151.96 324.383 1151.95 324.525C1151.96 324.666 1152.02 324.784 1152.11 324.878L1158.57 331.341L1157.05 332.868L1150.54 326.363ZM1155 321.286L1160.27 326.561L1161.83 325.005C1161.92 324.911 1161.97 324.798 1161.97 324.666C1161.98 324.525 1161.93 324.407 1161.84 324.312L1157.26 319.73C1157.16 319.636 1157.04 319.589 1156.89 319.589C1156.76 319.589 1156.65 319.636 1156.55 319.73L1155 321.286ZM1158.54 334.359L1166.74 326.156L1173.24 332.662C1173.58 333.001 1173.81 333.392 1173.91 333.836C1174.02 334.288 1174.02 334.731 1173.91 335.165C1173.81 335.608 1173.58 335.999 1173.24 336.339L1166.88 342.703L1165.35 341.175L1171.67 334.854C1171.77 334.759 1171.81 334.642 1171.8 334.5C1171.81 334.359 1171.77 334.241 1171.67 334.147L1167.09 329.565C1167 329.47 1166.88 329.423 1166.72 329.423C1166.59 329.423 1166.48 329.47 1166.39 329.565L1160.06 335.886L1158.54 334.359ZM1170.21 346.03C1169.87 345.691 1169.64 345.295 1169.53 344.842C1169.43 344.399 1169.43 343.956 1169.53 343.513C1169.64 343.079 1169.87 342.693 1170.21 342.353L1179.16 333.401L1180.69 334.929L1178.1 337.517L1181.46 340.882L1179.94 342.41L1176.57 339.044L1171.78 343.838C1171.68 343.932 1171.63 344.05 1171.62 344.192C1171.63 344.333 1171.68 344.451 1171.78 344.545L1174.79 347.557L1173.26 349.085L1170.21 346.03ZM1174.42 350.24L1180.78 343.876C1181.12 343.537 1181.51 343.315 1181.96 343.212C1182.4 343.108 1182.84 343.108 1183.29 343.212C1183.74 343.325 1184.13 343.546 1184.46 343.876L1189.04 348.458L1187.51 349.986L1182.97 345.446C1182.88 345.352 1182.76 345.305 1182.61 345.305C1182.47 345.305 1182.36 345.352 1182.27 345.446L1175.95 351.768L1174.42 350.24ZM1183.66 359.481C1183.32 359.142 1183.09 358.746 1182.98 358.293C1182.88 357.85 1182.88 357.407 1182.98 356.964C1183.09 356.53 1183.32 356.144 1183.66 355.804L1186.69 352.778L1193.49 359.58L1194.94 358.124C1195.04 358.029 1195.09 357.916 1195.09 357.784C1195.1 357.643 1195.05 357.525 1194.96 357.431L1188.5 350.968L1190.02 349.44L1196.53 355.946C1196.87 356.285 1197.09 356.677 1197.19 357.12C1197.32 357.563 1197.32 358.006 1197.19 358.449C1197.08 358.902 1196.86 359.293 1196.53 359.623L1190.16 365.987L1183.66 359.481ZM1185.23 357.996L1190.15 362.918L1192.06 361.009L1186.78 355.734L1185.23 357.289C1185.13 357.384 1185.08 357.501 1185.07 357.643C1185.08 357.784 1185.13 357.902 1185.23 357.996ZM1193.26 369.08C1192.92 368.74 1192.7 368.349 1192.59 367.906C1192.49 367.463 1192.49 367.02 1192.59 366.577C1192.7 366.134 1192.92 365.742 1193.26 365.403L1202.31 356.352L1203.84 357.879L1194.83 366.888C1194.73 366.982 1194.68 367.1 1194.67 367.241C1194.68 367.383 1194.73 367.501 1194.83 367.595L1196.31 369.08L1194.78 370.607L1193.26 369.08ZM1196.03 371.854L1204.23 363.652L1205.76 365.179L1197.56 373.381L1196.03 371.854ZM1205.39 362.492L1206.92 360.965L1208.45 362.492L1206.92 364.019L1205.39 362.492ZM1201.07 376.895C1200.73 376.556 1200.51 376.165 1200.41 375.722C1200.3 375.278 1200.3 374.835 1200.41 374.392C1200.51 373.949 1200.73 373.558 1201.07 373.218L1201.29 373.006L1202.81 374.534L1202.64 374.703C1202.55 374.798 1202.5 374.915 1202.49 375.057C1202.5 375.198 1202.55 375.316 1202.64 375.41L1207.22 379.992C1207.32 380.087 1207.43 380.134 1207.56 380.134C1207.71 380.124 1207.82 380.073 1207.92 379.978L1209.02 378.875C1209.12 378.781 1209.16 378.668 1209.16 378.536C1209.17 378.394 1209.13 378.277 1209.03 378.182L1204.41 373.558C1204.07 373.218 1203.84 372.832 1203.73 372.398C1203.63 371.955 1203.63 371.512 1203.73 371.069C1203.84 370.616 1204.07 370.22 1204.41 369.881L1205.6 368.693C1205.94 368.353 1206.33 368.132 1206.77 368.028C1207.22 367.924 1207.66 367.924 1208.1 368.028C1208.54 368.132 1208.94 368.353 1209.28 368.693L1213.94 373.36C1214.28 373.699 1214.5 374.09 1214.61 374.534C1214.72 374.986 1214.72 375.429 1214.61 375.863C1214.5 376.306 1214.28 376.697 1213.94 377.037L1213.73 377.249L1212.19 375.707L1212.36 375.538C1212.45 375.443 1212.5 375.33 1212.5 375.198C1212.51 375.057 1212.47 374.939 1212.37 374.845L1207.79 370.263C1207.7 370.168 1207.57 370.121 1207.42 370.121C1207.29 370.121 1207.18 370.168 1207.08 370.263L1205.98 371.366C1205.89 371.46 1205.83 371.578 1205.82 371.719C1205.83 371.861 1205.89 371.979 1205.98 372.073L1210.6 376.697C1210.94 377.037 1211.17 377.428 1211.27 377.871C1211.39 378.314 1211.39 378.757 1211.27 379.2C1211.17 379.644 1210.94 380.035 1210.6 380.374L1209.42 381.562C1209.08 381.902 1208.69 382.123 1208.24 382.227C1207.81 382.34 1207.37 382.34 1206.91 382.227C1206.47 382.123 1206.08 381.902 1205.74 381.562L1201.07 376.895ZM1210.58 386.398C1210.24 386.059 1210.01 385.667 1209.91 385.224C1209.81 384.781 1209.81 384.338 1209.91 383.895C1210.01 383.452 1210.24 383.061 1210.58 382.721L1215.1 378.196C1215.44 377.856 1215.83 377.635 1216.27 377.531C1216.72 377.427 1217.16 377.427 1217.6 377.531C1218.05 377.635 1218.44 377.856 1218.78 378.196L1223.45 382.863C1223.78 383.202 1224.01 383.593 1224.11 384.036C1224.23 384.479 1224.23 384.923 1224.11 385.366C1224 385.818 1223.78 386.21 1223.45 386.539L1220.42 389.566L1213.6 382.749L1212.15 384.206C1212.05 384.3 1212 384.418 1211.99 384.56C1212 384.701 1212.05 384.819 1212.15 384.913L1218.61 391.376L1217.08 392.903L1210.58 386.398ZM1215.03 381.321L1220.31 386.596L1221.86 385.04C1221.96 384.946 1222 384.833 1222 384.701C1222.01 384.56 1221.97 384.442 1221.88 384.347L1217.29 379.765C1217.2 379.671 1217.08 379.624 1216.93 379.624C1216.79 379.624 1216.68 379.671 1216.59 379.765L1215.03 381.321ZM1219.97 395.794C1219.63 395.454 1219.4 395.063 1219.28 394.62C1219.17 394.177 1219.18 393.729 1219.29 393.277C1219.42 392.833 1219.64 392.447 1219.97 392.117L1224.5 387.591C1224.84 387.252 1225.22 387.026 1225.66 386.913C1226.1 386.809 1226.54 386.809 1226.99 386.913C1227.44 387.026 1227.83 387.252 1228.17 387.591L1233.15 392.569L1235.84 389.882L1237.37 391.41L1226.48 402.299L1219.97 395.794ZM1221.56 394.323L1226.14 398.905C1226.23 398.999 1226.34 399.047 1226.48 399.047C1226.62 399.037 1226.74 398.985 1226.83 398.891L1231.27 394.45C1231.37 394.356 1231.41 394.243 1231.41 394.111C1231.42 393.97 1231.38 393.852 1231.29 393.757L1226.7 389.175C1226.61 389.081 1226.49 389.034 1226.34 389.034C1226.2 389.034 1226.09 389.081 1226 389.175L1221.56 393.616C1221.46 393.71 1221.41 393.828 1221.4 393.97C1221.41 394.111 1221.46 394.229 1221.56 394.323ZM1134.25 344.011C1133.92 343.681 1133.69 343.294 1133.57 342.851C1133.46 342.398 1133.45 341.951 1133.55 341.508C1133.68 341.064 1133.91 340.673 1134.25 340.334L1134.84 339.74L1136.37 341.267L1135.82 341.819C1135.72 341.913 1135.67 342.031 1135.66 342.172C1135.67 342.314 1135.72 342.431 1135.82 342.526L1142.24 348.946C1142.33 349.041 1142.44 349.088 1142.58 349.088C1142.72 349.078 1142.84 349.026 1142.93 348.932L1145.02 346.839C1145.13 346.735 1145.18 346.618 1145.18 346.486C1145.18 346.354 1145.13 346.24 1145.04 346.146L1138.57 339.683C1138.24 339.353 1138.02 338.967 1137.9 338.524C1137.78 338.071 1137.78 337.623 1137.88 337.18C1138 336.737 1138.24 336.346 1138.57 336.006L1140.75 333.828C1141.09 333.489 1141.48 333.263 1141.91 333.15C1142.36 333.036 1142.81 333.041 1143.26 333.164C1143.71 333.277 1144.1 333.498 1144.43 333.828L1150.93 340.334C1151.26 340.664 1151.49 341.055 1151.6 341.508C1151.72 341.951 1151.72 342.394 1151.6 342.837C1151.5 343.28 1151.27 343.671 1150.93 344.011L1150.34 344.605L1148.8 343.063L1149.35 342.512C1149.45 342.417 1149.49 342.304 1149.49 342.172C1149.5 342.031 1149.46 341.913 1149.37 341.819L1142.94 335.398C1142.85 335.304 1142.73 335.257 1142.58 335.257C1142.44 335.257 1142.33 335.304 1142.24 335.398L1140.14 337.491C1140.04 337.595 1139.99 337.713 1139.99 337.845C1140 337.986 1140.05 338.104 1140.14 338.198L1146.61 344.661C1146.94 344.991 1147.16 345.382 1147.27 345.835C1147.39 346.278 1147.39 346.721 1147.27 347.164C1147.17 347.607 1146.95 347.999 1146.61 348.338L1144.43 350.516C1144.09 350.855 1143.69 351.082 1143.24 351.195C1142.81 351.308 1142.36 351.308 1141.91 351.195C1141.47 351.072 1141.08 350.846 1140.75 350.516L1134.25 344.011ZM1144.06 353.828L1152.27 345.626L1153.79 347.153L1145.59 355.356L1144.06 353.828ZM1153.43 344.466L1154.95 342.939L1156.48 344.466L1154.95 345.994L1153.43 344.466ZM1145.17 361.406L1146.71 359.865L1151.73 364.885C1151.82 364.979 1151.94 365.022 1152.08 365.012C1152.22 365.022 1152.34 364.979 1152.43 364.885L1153.78 363.542L1148.8 358.563C1148.47 358.233 1148.24 357.847 1148.12 357.404C1148.01 356.951 1148.01 356.499 1148.12 356.046C1148.24 355.603 1148.47 355.217 1148.8 354.887L1153.33 350.361C1153.66 350.022 1154.06 349.8 1154.5 349.696C1154.94 349.593 1155.39 349.593 1155.83 349.696C1156.28 349.809 1156.67 350.031 1157 350.361L1161.67 355.028C1162.01 355.367 1162.23 355.759 1162.33 356.202C1162.45 356.654 1162.45 357.097 1162.33 357.531C1162.23 357.974 1162.01 358.365 1161.67 358.705L1153.91 366.469C1153.57 366.808 1153.17 367.03 1152.73 367.134C1152.29 367.256 1151.85 367.256 1151.4 367.134C1150.96 367.03 1150.57 366.808 1150.23 366.469L1145.17 361.406ZM1150.37 357.079L1154.95 361.661C1155.05 361.755 1155.16 361.802 1155.29 361.802C1155.44 361.802 1155.56 361.755 1155.66 361.661L1160.1 357.22C1160.19 357.126 1160.24 357.008 1160.23 356.866C1160.24 356.725 1160.19 356.607 1160.1 356.513L1155.52 351.931C1155.42 351.837 1155.3 351.789 1155.15 351.789C1155.02 351.789 1154.9 351.837 1154.81 351.931L1150.37 356.371C1150.28 356.466 1150.22 356.584 1150.21 356.725C1150.22 356.866 1150.28 356.984 1150.37 357.079ZM1156.8 366.563L1165 358.36L1171.51 364.865C1171.85 365.205 1172.07 365.596 1172.17 366.039C1172.28 366.492 1172.28 366.935 1172.17 367.369C1172.07 367.812 1171.85 368.203 1171.51 368.542L1165.14 374.906L1163.62 373.379L1169.94 367.057C1170.03 366.963 1170.07 366.845 1170.06 366.704C1170.07 366.563 1170.03 366.445 1169.94 366.35L1165.36 361.768C1165.26 361.674 1165.14 361.627 1164.99 361.627C1164.86 361.627 1164.74 361.674 1164.65 361.768L1158.33 368.09L1156.8 366.563ZM1170.73 380.497L1180.92 370.315L1182.44 371.842L1172.26 382.025L1170.73 380.497ZM1173.87 383.633L1182.07 375.43L1188.58 381.935C1188.92 382.275 1189.14 382.666 1189.24 383.109C1189.35 383.562 1189.35 384.005 1189.24 384.439C1189.14 384.882 1188.92 385.273 1188.58 385.612L1182.21 391.976L1180.69 390.449L1187.01 384.127C1187.1 384.033 1187.14 383.915 1187.13 383.774C1187.14 383.633 1187.1 383.515 1187.01 383.42L1182.43 378.838C1182.33 378.744 1182.21 378.697 1182.06 378.697C1181.93 378.697 1181.81 378.744 1181.72 378.838L1175.4 385.16L1173.87 383.633Z" fill="white"/>
<circle cx="1002.5" cy="183.5" r="10.5" fill="#54FF7F"/>
<circle cx="434.5" cy="183.5" r="10.5" fill="#54FF7F"/>
<path d="M693.496 25L741.32 25C752.606 25 763.457 20.6408 771.607 12.8323C776.456 8.18606 773.168 -1.03443e-06 766.452 -1.62155e-06L668.455 -1.01887e-05C660.721 -1.08648e-05 657.488 9.88255 663.726 14.4532L665.718 15.9127C673.777 21.8169 683.507 25 693.496 25Z" fill="#54FF7F"/>
<path d="M1217.56 279.242L1237.86 299.534C1246.07 307.745 1257.5 311.883 1269.07 310.826C1274.69 310.313 1277.16 303.48 1273.17 299.49L1217.49 243.816C1212.59 238.91 1204.21 242.589 1204.51 249.521C1204.98 260.714 1209.64 271.32 1217.56 279.242Z" fill="#54FF7F"/>
<path d="M215.648 279.242L195.355 299.534C187.144 307.745 175.709 311.883 164.145 310.826C158.526 310.313 156.054 303.48 160.043 299.49L215.718 243.816C220.624 238.91 228.999 242.589 228.704 249.521C228.229 260.714 223.569 271.32 215.648 279.242Z" fill="#54FF7F"/>
<rect x="616" y="74" width="207" height="143" rx="31" fill="black" fill-opacity="0.1"/>
<rect x="1136.16" y="241" width="207" height="109.127" rx="31" transform="rotate(45 1136.16 241)" fill="black" fill-opacity="0.1"/>
<rect width="207" height="109.127" rx="31" transform="matrix(-0.707107 0.707107 0.707107 0.707107 306.371 241)" fill="black" fill-opacity="0.1"/>
<path d="M665.333 140C664.773 140 664.253 139.864 663.773 139.592C663.293 139.304 662.909 138.928 662.621 138.464C662.349 137.984 662.213 137.456 662.213 136.88V135.872H664.805V136.808C664.805 136.968 664.861 137.112 664.973 137.24C665.101 137.352 665.245 137.408 665.405 137.408H676.301C676.461 137.408 676.597 137.352 676.709 137.24C676.821 137.112 676.877 136.968 676.877 136.808V133.256C676.877 133.08 676.821 132.936 676.709 132.824C676.597 132.712 676.461 132.656 676.301 132.656H665.333C664.773 132.656 664.253 132.52 663.773 132.248C663.293 131.96 662.909 131.584 662.621 131.12C662.349 130.64 662.213 130.112 662.213 129.536V125.84C662.213 125.264 662.349 124.744 662.621 124.28C662.909 123.8 663.293 123.424 663.773 123.152C664.253 122.864 664.773 122.72 665.333 122.72H676.373C676.933 122.72 677.453 122.864 677.933 123.152C678.413 123.424 678.789 123.8 679.061 124.28C679.349 124.744 679.493 125.264 679.493 125.84V126.848H676.877V125.912C676.877 125.752 676.821 125.616 676.709 125.504C676.597 125.376 676.461 125.312 676.301 125.312H665.405C665.245 125.312 665.101 125.376 664.973 125.504C664.861 125.616 664.805 125.752 664.805 125.912V129.464C664.805 129.64 664.861 129.784 664.973 129.896C665.101 130.008 665.245 130.064 665.405 130.064H676.373C676.933 130.064 677.453 130.208 677.933 130.496C678.413 130.768 678.789 131.144 679.061 131.624C679.349 132.088 679.493 132.608 679.493 133.184V136.88C679.493 137.456 679.349 137.984 679.061 138.464C678.789 138.928 678.413 139.304 677.933 139.592C677.453 139.864 676.933 140 676.373 140H665.333ZM685.09 140C684.514 140 683.994 139.856 683.53 139.568C683.066 139.28 682.69 138.904 682.402 138.44C682.114 137.976 681.97 137.456 681.97 136.88V129.2C681.97 128.624 682.114 128.104 682.402 127.64C682.69 127.176 683.066 126.8 683.53 126.512C683.994 126.224 684.514 126.08 685.09 126.08H696.082V128.672H685.162C685.002 128.672 684.858 128.736 684.73 128.864C684.618 128.976 684.562 129.112 684.562 129.272V136.808C684.562 136.968 684.618 137.112 684.73 137.24C684.858 137.352 685.002 137.408 685.162 137.408H696.13V140H685.09ZM698.588 140V129.2C698.588 128.624 698.732 128.104 699.02 127.64C699.308 127.176 699.684 126.8 700.148 126.512C700.628 126.224 701.148 126.08 701.708 126.08H709.484V128.672H701.78C701.62 128.672 701.476 128.736 701.348 128.864C701.236 128.976 701.18 129.112 701.18 129.272V140H698.588ZM714.27 140C713.694 140 713.166 139.856 712.686 139.568C712.222 139.28 711.846 138.904 711.558 138.44C711.286 137.976 711.15 137.456 711.15 136.88V131.744H722.694V129.272C722.694 129.112 722.638 128.976 722.526 128.864C722.414 128.736 722.278 128.672 722.118 128.672H711.15V126.08H722.19C722.766 126.08 723.286 126.224 723.75 126.512C724.23 126.784 724.606 127.16 724.878 127.64C725.166 128.12 725.31 128.64 725.31 129.2V140H714.27ZM714.342 137.408H722.694V134.168H713.742V136.808C713.742 136.968 713.798 137.112 713.91 137.24C714.038 137.352 714.182 137.408 714.342 137.408ZM727.862 145.52V126.08H738.902C739.478 126.08 739.998 126.224 740.462 126.512C740.942 126.8 741.318 127.176 741.59 127.64C741.878 128.104 742.022 128.624 742.022 129.2V136.88C742.022 137.456 741.878 137.976 741.59 138.44C741.318 138.904 740.942 139.28 740.462 139.568C739.998 139.856 739.478 140 738.902 140H730.454V145.52H727.862ZM731.054 137.408H738.83C738.99 137.408 739.126 137.352 739.238 137.24C739.366 137.112 739.43 136.968 739.43 136.808V129.272C739.43 129.112 739.366 128.976 739.238 128.864C739.126 128.736 738.99 128.672 738.83 128.672H731.054C730.894 128.672 730.75 128.736 730.622 128.864C730.51 128.976 730.454 129.112 730.454 129.272V136.808C730.454 136.968 730.51 137.112 730.622 137.24C730.75 137.352 730.894 137.408 731.054 137.408ZM743.963 140V126.08H746.555V140H743.963ZM743.963 124.112V121.52H746.555V124.112H743.963ZM749.331 140V126.08H760.371C760.947 126.08 761.467 126.224 761.931 126.512C762.411 126.8 762.787 127.176 763.059 127.64C763.347 128.104 763.491 128.624 763.491 129.2V140H760.899V129.272C760.899 129.112 760.835 128.976 760.707 128.864C760.595 128.736 760.459 128.672 760.299 128.672H752.523C752.363 128.672 752.219 128.736 752.091 128.864C751.979 128.976 751.923 129.112 751.923 129.272V140H749.331ZM768.084 145.496V142.88H776.604C776.764 142.88 776.9 142.816 777.012 142.688C777.14 142.576 777.204 142.44 777.204 142.28V140H768.756C768.196 140 767.676 139.864 767.196 139.592C766.716 139.304 766.332 138.92 766.044 138.44C765.772 137.96 765.636 137.44 765.636 136.88V129.2C765.636 128.624 765.78 128.104 766.068 127.64C766.356 127.176 766.732 126.8 767.196 126.512C767.676 126.224 768.196 126.08 768.756 126.08H776.676C777.252 126.08 777.772 126.224 778.236 126.512C778.716 126.8 779.092 127.176 779.364 127.64C779.652 128.104 779.796 128.624 779.796 129.2V142.376C779.796 142.952 779.652 143.472 779.364 143.936C779.092 144.416 778.716 144.792 778.236 145.064C777.772 145.352 777.252 145.496 776.676 145.496H768.084ZM768.828 137.408H776.604C776.764 137.408 776.9 137.352 777.012 137.24C777.14 137.112 777.204 136.968 777.204 136.808V129.272C777.204 129.112 777.14 128.976 777.012 128.864C776.9 128.736 776.764 128.672 776.604 128.672H768.828C768.668 128.672 768.524 128.736 768.396 128.864C768.284 128.976 768.228 129.112 768.228 129.272V136.808C768.228 136.968 768.284 137.112 768.396 137.24C768.524 137.352 768.668 137.408 768.828 137.408ZM645.869 168V150.72H660.005C660.581 150.72 661.109 150.864 661.589 151.152C662.069 151.424 662.445 151.8 662.717 152.28C663.005 152.744 663.149 153.264 663.149 153.84V164.88C663.149 165.456 663.005 165.984 662.717 166.464C662.445 166.928 662.069 167.304 661.589 167.592C661.109 167.864 660.581 168 660.005 168H645.869ZM649.037 165.408H659.957C660.117 165.408 660.253 165.352 660.365 165.24C660.477 165.112 660.533 164.968 660.533 164.808V153.912C660.533 153.752 660.477 153.616 660.365 153.504C660.253 153.376 660.117 153.312 659.957 153.312H649.037C648.877 153.312 648.741 153.376 648.629 153.504C648.517 153.616 648.461 153.752 648.461 153.912V164.808C648.461 164.968 648.517 165.112 648.629 165.24C648.741 165.352 648.877 165.408 649.037 165.408ZM668.86 168C668.284 168 667.756 167.856 667.276 167.568C666.812 167.28 666.436 166.904 666.148 166.44C665.876 165.976 665.74 165.456 665.74 164.88V159.744H677.284V157.272C677.284 157.112 677.228 156.976 677.116 156.864C677.004 156.736 676.868 156.672 676.708 156.672H665.74V154.08H676.78C677.356 154.08 677.876 154.224 678.34 154.512C678.82 154.784 679.196 155.16 679.468 155.64C679.756 156.12 679.9 156.64 679.9 157.2V168H668.86ZM668.932 165.408H677.284V162.168H668.332V164.808C668.332 164.968 668.388 165.112 668.5 165.24C668.628 165.352 668.772 165.408 668.932 165.408ZM685.548 168C684.972 168 684.444 167.856 683.964 167.568C683.5 167.28 683.124 166.904 682.836 166.44C682.564 165.976 682.428 165.456 682.428 164.88V149.688H685.02V154.08H690.732V156.672H685.02V164.808C685.02 164.968 685.076 165.112 685.188 165.24C685.316 165.352 685.46 165.408 685.62 165.408H690.732V168H685.548ZM695.696 168C695.12 168 694.6 167.856 694.136 167.568C693.672 167.28 693.296 166.904 693.008 166.44C692.72 165.976 692.576 165.456 692.576 164.88V157.2C692.576 156.624 692.72 156.104 693.008 155.64C693.296 155.176 693.672 154.8 694.136 154.512C694.6 154.224 695.12 154.08 695.696 154.08H703.616C704.192 154.08 704.712 154.224 705.176 154.512C705.656 154.784 706.032 155.16 706.304 155.64C706.592 156.12 706.736 156.64 706.736 157.2V162.336H695.168V164.808C695.168 164.968 695.224 165.112 695.336 165.24C695.464 165.352 695.608 165.408 695.768 165.408H706.736V168H695.696ZM695.168 159.912H704.12V157.272C704.12 157.112 704.064 156.976 703.952 156.864C703.84 156.736 703.704 156.672 703.544 156.672H695.768C695.608 156.672 695.464 156.736 695.336 156.864C695.224 156.976 695.168 157.112 695.168 157.272V159.912ZM716.322 168V150.72H732.162V153.312H718.938V158.064H729.57V160.656H718.938V168H716.322ZM736.617 168C736.041 168 735.521 167.856 735.057 167.568C734.593 167.28 734.217 166.904 733.929 166.44C733.641 165.976 733.497 165.456 733.497 164.88V157.2C733.497 156.624 733.641 156.104 733.929 155.64C734.217 155.176 734.593 154.8 735.057 154.512C735.521 154.224 736.041 154.08 736.617 154.08H744.537C745.113 154.08 745.633 154.224 746.097 154.512C746.577 154.784 746.953 155.16 747.225 155.64C747.513 156.12 747.657 156.64 747.657 157.2V162.336H736.089V164.808C736.089 164.968 736.145 165.112 736.257 165.24C736.385 165.352 736.529 165.408 736.689 165.408H747.657V168H736.617ZM736.089 159.912H745.041V157.272C745.041 157.112 744.985 156.976 744.873 156.864C744.761 156.736 744.625 156.672 744.465 156.672H736.689C736.529 156.672 736.385 156.736 736.257 156.864C736.145 156.976 736.089 157.112 736.089 157.272V159.912ZM752.789 168C752.213 168 751.693 167.856 751.229 167.568C750.765 167.28 750.389 166.904 750.101 166.44C749.813 165.976 749.669 165.456 749.669 164.88V157.2C749.669 156.624 749.813 156.104 750.101 155.64C750.389 155.176 750.765 154.8 751.229 154.512C751.693 154.224 752.213 154.08 752.789 154.08H760.709C761.285 154.08 761.805 154.224 762.269 154.512C762.749 154.784 763.125 155.16 763.397 155.64C763.685 156.12 763.829 156.64 763.829 157.2V162.336H752.261V164.808C752.261 164.968 752.317 165.112 752.429 165.24C752.557 165.352 752.701 165.408 752.861 165.408H763.829V168H752.789ZM752.261 159.912H761.213V157.272C761.213 157.112 761.157 156.976 761.045 156.864C760.933 156.736 760.797 156.672 760.637 156.672H752.861C752.701 156.672 752.557 156.736 752.429 156.864C752.317 156.976 752.261 157.112 752.261 157.272V159.912ZM768.735 168C768.159 168 767.631 167.864 767.151 167.592C766.687 167.304 766.311 166.92 766.023 166.44C765.751 165.96 765.615 165.44 765.615 164.88V157.2C765.615 156.624 765.751 156.104 766.023 155.64C766.311 155.176 766.687 154.8 767.151 154.512C767.631 154.224 768.159 154.08 768.735 154.08H777.182V149.52H779.775V168H768.735ZM768.831 165.408H776.607C776.767 165.408 776.903 165.352 777.015 165.24C777.127 165.112 777.182 164.968 777.182 164.808V157.272C777.182 157.112 777.127 156.976 777.015 156.864C776.903 156.736 776.767 156.672 776.607 156.672H768.831C768.671 156.672 768.527 156.736 768.399 156.864C768.287 156.976 768.23 157.112 768.23 157.272V164.808C768.23 164.968 768.287 165.112 768.399 165.24C768.527 165.352 768.671 165.408 768.831 165.408ZM785.342 168C784.766 168 784.246 167.856 783.782 167.568C783.318 167.28 782.942 166.904 782.654 166.44C782.366 165.976 782.222 165.456 782.222 164.88V164.52H784.814V164.808C784.814 164.968 784.87 165.112 784.982 165.24C785.11 165.352 785.254 165.408 785.414 165.408H793.19C793.35 165.408 793.486 165.352 793.598 165.24C793.71 165.112 793.766 164.968 793.766 164.808V162.936C793.766 162.776 793.71 162.64 793.598 162.528C793.486 162.4 793.35 162.336 793.19 162.336H785.342C784.766 162.336 784.246 162.2 783.782 161.928C783.318 161.64 782.942 161.264 782.654 160.8C782.366 160.32 782.222 159.792 782.222 159.216V157.2C782.222 156.624 782.366 156.104 782.654 155.64C782.942 155.176 783.318 154.8 783.782 154.512C784.246 154.224 784.766 154.08 785.342 154.08H793.262C793.838 154.08 794.358 154.224 794.822 154.512C795.302 154.8 795.678 155.176 795.95 155.64C796.238 156.104 796.382 156.624 796.382 157.2V157.56H793.766V157.272C793.766 157.112 793.71 156.976 793.598 156.864C793.486 156.736 793.35 156.672 793.19 156.672H785.414C785.254 156.672 785.11 156.736 784.982 156.864C784.87 156.976 784.814 157.112 784.814 157.272V159.144C784.814 159.304 784.87 159.448 784.982 159.576C785.11 159.688 785.254 159.744 785.414 159.744H793.262C793.838 159.744 794.358 159.888 794.822 160.176C795.302 160.448 795.678 160.824 795.95 161.304C796.238 161.768 796.382 162.288 796.382 162.864V164.88C796.382 165.456 796.238 165.976 795.95 166.44C795.678 166.904 795.302 167.28 794.822 167.568C794.358 167.856 793.838 168 793.262 168H785.342Z" fill="white"/>
<defs>
<filter id="filter0_b_4328_4716" x="963.012" y="137.012" width="419.713" height="419.713" filterUnits="userSpaceOnUse" color-interpolation-filters="sRGB">
<feFlood flood-opacity="0" result="BackgroundImageFix"/>
<feGaussianBlur in="BackgroundImageFix" stdDeviation="29.5"/>
<feComposite in2="SourceAlpha" operator="in" result="effect1_backgroundBlur_4328_4716"/>
<feBlend mode="normal" in="SourceGraphic" in2="effect1_backgroundBlur_4328_4716" result="shape"/>
</filter>
<filter id="filter1_b_4328_4716" x="54.0127" y="137.012" width="419.713" height="419.713" filterUnits="userSpaceOnUse" color-interpolation-filters="sRGB">
<feFlood flood-opacity="0" result="BackgroundImageFix"/>
<feGaussianBlur in="BackgroundImageFix" stdDeviation="29.5"/>
<feComposite in2="SourceAlpha" operator="in" result="effect1_backgroundBlur_4328_4716"/>
<feBlend mode="normal" in="SourceGraphic" in2="effect1_backgroundBlur_4328_4716" result="shape"/>
</filter>
<linearGradient id="paint0_linear_4328_4716" x1="-244.5" y1="867.5" x2="1050.93" y2="1497.44" gradientUnits="userSpaceOnUse">
<stop stop-color="#54FF7F" stop-opacity="0"/>
<stop offset="0.423337" stop-color="#54FF7F"/>
<stop offset="1" stop-color="#54FF7F" stop-opacity="0"/>
</linearGradient>
<linearGradient id="paint1_linear_4328_4716" x1="1369.3" y1="339.189" x2="1102.15" y2="348.026" gradientUnits="userSpaceOnUse">
<stop stop-color="#54FF7F"/>
<stop offset="1" stop-color="#54FF7F" stop-opacity="0"/>
</linearGradient>
<linearGradient id="paint2_linear_4328_4716" x1="67.4333" y1="339.189" x2="334.587" y2="348.026" gradientUnits="userSpaceOnUse">
<stop stop-color="#54FF7F"/>
<stop offset="1" stop-color="#54FF7F" stop-opacity="0"/>
</linearGradient>
</defs>
</svg>
