<svg width="22" height="26" viewBox="0 0 22 26" fill="none" xmlns="http://www.w3.org/2000/svg">
<path d="M6.21085 0.0161133C4.31827 0.0192064 2.42665 0.0958121 0.541016 0.245727V25.2947C1.90735 25.0165 3.28221 24.7751 4.66381 24.5711C4.85747 24.5417 5.05113 24.5153 5.24367 24.4889C5.48859 24.4543 5.73353 24.4195 5.97731 24.3879L6.21085 24.3563V0.0161133ZM7.55511 0.0192731V24.1995C12.2182 23.6861 16.9255 23.6111 21.6049 23.9751V1.58023C16.9916 0.618223 12.2838 0.0951805 7.55511 0.0192731ZM9.49975 1.92571C9.50545 1.92564 9.51115 1.92564 9.51685 1.92571C13.0029 2.01839 16.4945 2.35123 19.9601 2.92631C20.0469 2.94079 20.1299 2.97095 20.2043 3.01511C20.2785 3.05927 20.3427 3.11655 20.3931 3.18365C20.4435 3.25075 20.4791 3.32639 20.4977 3.40621C20.5165 3.48605 20.5181 3.56849 20.5023 3.64887C20.4743 3.78993 20.3945 3.91777 20.2765 4.01069C20.1583 4.10361 20.0091 4.15589 19.8539 4.15865C19.8097 4.15953 19.7655 4.15635 19.7219 4.14917C16.3385 3.58703 12.9144 3.25927 9.47811 3.16857C9.38983 3.16625 9.30291 3.14787 9.22233 3.11449C9.14173 3.08109 9.06905 3.03335 9.00843 2.97397C8.94781 2.91459 8.90043 2.84475 8.86903 2.76843C8.83759 2.69213 8.82277 2.61085 8.82535 2.52923C8.83069 2.36735 8.90417 2.21381 9.03013 2.10129C9.15609 1.98875 9.32459 1.92614 9.49975 1.92676V1.92571ZM4.70141 1.9552C4.87247 1.95828 5.03581 2.02155 5.15817 2.13213C5.28051 2.24271 5.35265 2.39225 5.35987 2.55031C5.36727 2.71479 5.30377 2.87529 5.18331 2.99655C5.06285 3.11779 4.89525 3.18989 4.71735 3.19701C3.82209 3.23123 2.92763 3.28179 2.03451 3.34869C2.01937 3.34987 2.00417 3.35057 1.98895 3.35079C1.81879 3.35263 1.65421 3.29475 1.52841 3.18881C1.40261 3.08285 1.32495 2.93673 1.31111 2.77991C1.29695 2.61583 1.35375 2.45325 1.46909 2.32785C1.58443 2.20247 1.74885 2.12451 1.92629 2.11107C2.83765 2.04261 3.74903 1.99101 4.66153 1.9552C4.67481 1.95483 4.68811 1.95483 4.70141 1.9552ZM9.48837 4.94019C9.49405 4.94011 9.49975 4.94011 9.50545 4.94019C13.0044 4.97993 16.4951 5.26159 19.9485 5.78281C20.0357 5.79587 20.1193 5.82467 20.1943 5.86757C20.2695 5.91047 20.3347 5.96665 20.3863 6.03285C20.4379 6.09907 20.4749 6.17405 20.4953 6.25349C20.5155 6.33295 20.5187 6.41529 20.5045 6.49589C20.4779 6.64483 20.3939 6.77975 20.2677 6.87551C20.1415 6.97125 19.9819 7.02127 19.8187 7.01619C19.7897 7.01581 19.7609 7.01371 19.7321 7.00987C16.3454 6.49809 12.922 6.22135 9.49065 6.18201C9.40237 6.18117 9.31515 6.16429 9.23395 6.13229C9.15273 6.10029 9.07915 6.05381 9.01735 5.99553C8.95559 5.93723 8.90683 5.86827 8.87387 5.79255C8.84093 5.71683 8.82443 5.63585 8.82535 5.55425C8.82741 5.39217 8.89789 5.23723 9.02175 5.12251C9.14561 5.00781 9.31305 4.94237 9.48837 4.94019ZM4.69115 5.04235C4.86211 5.04289 5.02645 5.10363 5.15069 5.21223C5.27493 5.32083 5.34973 5.46913 5.35987 5.62693C5.36983 5.79111 5.30899 5.95225 5.19071 6.07505C5.07241 6.19785 4.90629 6.27229 4.72875 6.28207C3.83333 6.33051 2.93791 6.39475 2.04477 6.47587C2.02963 6.47739 2.01443 6.47845 1.99921 6.47903C1.82911 6.48321 1.66361 6.42761 1.53613 6.32343C1.40863 6.21923 1.32863 6.07421 1.31225 5.91763C1.29511 5.75367 1.34907 5.59011 1.46229 5.46291C1.57551 5.33573 1.73871 5.25529 1.91603 5.23931C2.82741 5.15717 3.73763 5.09185 4.65015 5.04235C4.66381 5.04197 4.67747 5.04197 4.69115 5.04235ZM9.47811 7.95257C9.48381 7.95249 9.48951 7.95249 9.49519 7.95257C12.9812 7.93887 16.4728 8.16743 19.9383 8.63719C20.0257 8.64905 20.1097 8.67671 20.1855 8.71861C20.2613 8.76049 20.3275 8.81579 20.3801 8.88133C20.4329 8.94687 20.4711 9.02137 20.4925 9.10057C20.5141 9.17975 20.5187 9.26211 20.5057 9.34289C20.4819 9.49209 20.4003 9.62823 20.2759 9.72591C20.1517 9.82357 19.9933 9.87611 19.8301 9.87373C19.8011 9.87335 19.7721 9.87125 19.7435 9.86741C16.3519 9.40681 12.9277 9.18217 9.49975 9.19543C9.41149 9.19571 9.32403 9.17991 9.24237 9.14893C9.16071 9.11795 9.08643 9.07241 9.02383 9.01491C8.96119 8.95739 8.91143 8.88905 8.87737 8.81375C8.84333 8.73847 8.82565 8.65771 8.82535 8.57611C8.82467 8.41399 8.89255 8.25803 9.01451 8.14153C9.13647 8.02505 9.30283 7.95723 9.47811 7.95257ZM10.7916 10.9502C13.8467 10.9454 16.8987 11.1266 19.9281 11.4927C20.1047 11.5139 20.2647 11.599 20.3735 11.7293C20.4821 11.8596 20.5305 12.0246 20.5079 12.1878C20.4869 12.3377 20.4075 12.4753 20.2845 12.5749C20.1617 12.6746 20.0039 12.7294 19.8403 12.7292C19.8115 12.7292 19.7825 12.7274 19.7537 12.7239C16.3588 12.3142 12.9353 12.141 9.51227 12.2057C9.42401 12.2075 9.33621 12.1933 9.25391 12.1637C9.17163 12.1341 9.09643 12.0899 9.03263 12.0334C8.96883 11.977 8.91771 11.9095 8.88213 11.8347C8.84657 11.76 8.82727 11.6796 8.82535 11.598C8.82337 11.5162 8.83887 11.435 8.87089 11.3589C8.90295 11.2827 8.95091 11.2131 9.01209 11.1541C9.07325 11.0952 9.14641 11.0478 9.22735 11.015C9.30829 10.9822 9.39543 10.9644 9.48381 10.9629C9.91897 10.9544 10.3553 10.9502 10.7916 10.9502ZM12.0892 13.9331C14.7047 13.9349 17.3181 14.0734 19.9167 14.3481C20.0937 14.3666 20.2555 14.4494 20.3667 14.5781C20.4777 14.7069 20.5289 14.8711 20.5091 15.0348C20.4905 15.1848 20.4135 15.3233 20.2927 15.4247C20.1717 15.5261 20.0149 15.5833 19.8517 15.5857C19.8229 15.586 19.7939 15.5846 19.7651 15.5814C16.3656 15.2236 12.9418 15.1024 9.52255 15.2191C9.34463 15.2248 9.17155 15.165 9.04127 15.0529C8.91099 14.9407 8.83415 14.7853 8.82763 14.6209C8.82115 14.4564 8.88553 14.2962 9.00663 14.1756C9.12773 14.0549 9.29565 13.9836 9.47355 13.9773C10.3451 13.9478 11.2166 13.9331 12.0892 13.9331Z" fill="#8A919E"/>
</svg>
