<svg width="23" height="16" viewBox="0 0 23 16" fill="none" xmlns="http://www.w3.org/2000/svg">
<path d="M19.3591 1.47398C17.9012 0.892604 16.3386 0.462894 14.7046 0.21855C14.6899 0.21608 14.6749 0.217672 14.6615 0.223106C14.6479 0.228541 14.6366 0.237549 14.6293 0.248883C14.4292 0.55979 14.2062 0.965065 14.0498 1.28524C12.3168 1.05626 10.5549 1.05626 8.82175 1.28524C8.6477 0.930402 8.45143 0.584413 8.23386 0.248883C8.22648 0.237409 8.21532 0.228197 8.20187 0.222477C8.18843 0.216756 8.17332 0.214798 8.15858 0.216865C6.52543 0.46121 4.96279 0.890919 3.50401 1.47314C3.49146 1.47778 3.48082 1.48572 3.47352 1.49589C0.508315 5.35064 -0.304447 9.11018 0.0947881 12.8224C0.0958985 12.8315 0.0990909 12.8404 0.104168 12.8483C0.109246 12.8563 0.116105 12.8632 0.124325 12.8689C1.85504 13.9831 3.78542 14.8318 5.83463 15.3797C5.84892 15.3836 5.8642 15.3836 5.87848 15.3797C5.89276 15.3758 5.90537 15.3681 5.91467 15.3578C6.35488 14.8354 6.74744 14.2835 7.08284 13.7038C7.10285 13.6701 7.08379 13.6298 7.04377 13.6162C6.42826 13.4113 5.83186 13.1639 5.26008 12.8764C5.24981 12.8713 5.24114 12.8638 5.23488 12.8551C5.22862 12.8461 5.22494 12.836 5.22419 12.8255C5.22343 12.8151 5.22562 12.8047 5.23055 12.7952C5.23548 12.7857 5.243 12.7774 5.25246 12.7712C5.37251 12.6927 5.49257 12.611 5.6069 12.5294C5.61719 12.5219 5.6296 12.5173 5.64271 12.5158C5.65584 12.5143 5.66917 12.5161 5.68122 12.5209C9.42302 14.0072 13.4754 14.0072 17.1732 12.5209C17.1853 12.5158 17.1989 12.5138 17.2122 12.5151C17.2255 12.5164 17.238 12.5211 17.2486 12.5285C17.3629 12.611 17.4821 12.6927 17.603 12.7712C17.6125 12.7773 17.6202 12.7855 17.6254 12.7948C17.6304 12.8043 17.6328 12.8147 17.6322 12.8252C17.6316 12.8356 17.6282 12.8457 17.6221 12.8547C17.616 12.8636 17.6075 12.8711 17.5974 12.8764C17.0275 13.1662 16.4348 13.4115 15.8126 13.6154C15.803 13.6185 15.7944 13.6233 15.7871 13.6295C15.7799 13.6359 15.7741 13.6435 15.7704 13.6517C15.7668 13.6601 15.7651 13.6691 15.7657 13.6781C15.7662 13.6871 15.769 13.6959 15.7735 13.7038C16.1166 14.2827 16.5092 14.8337 16.9408 15.3569C16.9498 15.3676 16.9624 15.3758 16.9765 15.38C16.9909 15.3842 17.0064 15.3844 17.0208 15.3806C19.0735 14.8343 21.0071 13.9851 22.7398 12.8689C22.7483 12.8636 22.7552 12.8569 22.7605 12.8489C22.7658 12.8411 22.769 12.8324 22.7702 12.8233C23.2466 8.53132 21.9718 4.80212 19.3886 1.49757C19.3823 1.48683 19.3718 1.47846 19.3591 1.47398ZM7.64214 10.5619C6.5159 10.5619 5.5869 9.66122 5.5869 8.55659C5.5869 7.45114 6.4978 6.55128 7.64214 6.55128C8.79508 6.55128 9.71552 7.45872 9.69744 8.55659C9.69744 9.66206 8.7865 10.5619 7.64214 10.5619ZM15.241 10.5619C14.1137 10.5619 13.1857 9.66122 13.1857 8.55659C13.1857 7.45114 14.0957 6.55128 15.241 6.55128C16.3939 6.55128 17.3143 7.45872 17.2962 8.55659C17.2962 9.66206 16.3948 10.5619 15.241 10.5619Z" fill="#8A919E"/>
</svg>
