<svg width="24" height="17" viewBox="0 0 24 17" fill="none" xmlns="http://www.w3.org/2000/svg">
<path d="M23.0151 2.69947C22.1983 3.01949 21.3209 3.23573 20.3986 3.33347C21.3503 2.82989 22.0623 2.03732 22.4017 1.10365C21.5076 1.5733 20.529 1.90389 19.5084 2.08104C18.8221 1.43307 17.9132 1.0036 16.9226 0.859284C15.932 0.714968 14.9152 0.863879 14.0302 1.28291C13.1451 1.70194 12.4412 2.36763 12.0278 3.17665C11.6145 3.98566 11.5148 4.89273 11.7441 5.75703C9.93225 5.67658 8.15984 5.26017 6.54181 4.53478C4.9238 3.8094 3.49634 2.79129 2.35208 1.5465C1.96083 2.1433 1.73586 2.83526 1.73586 3.57219C1.73542 4.23558 1.92017 4.88883 2.27372 5.47395C2.62725 6.05907 3.13865 6.55798 3.76254 6.92641C3.039 6.90606 2.33142 6.73317 1.69869 6.42216V6.47406C1.69863 7.40454 2.06259 8.3063 2.72883 9.02649C3.3951 9.74669 4.32258 10.2408 5.35395 10.4251C4.68275 10.5857 3.97904 10.6094 3.29598 10.4943C3.58696 11.2949 4.15379 11.9949 4.91709 12.4965C5.6804 12.9981 6.60196 13.2761 7.55279 13.2915C5.93872 14.412 3.94534 15.0197 1.89334 15.0171C1.52986 15.0171 1.16666 14.9984 0.805664 14.9609C2.88856 16.1451 5.3132 16.7736 7.7895 16.7711C16.172 16.7711 20.7545 10.6319 20.7545 5.30726C20.7545 5.13427 20.7497 4.95955 20.7409 4.78656C21.6323 4.21654 22.4017 3.51068 23.013 2.70206L23.0151 2.69947Z" fill="#8A919E"/>
</svg>
