<svg width="124" height="42" viewBox="0 0 124 42" fill="none" xmlns="http://www.w3.org/2000/svg">
<path d="M75.5947 31.4094C75.2987 31.4153 75.016 31.534 74.8045 31.7412C74.5718 31.9441 74.4215 32.225 74.3817 32.5311C74.378 32.589 74.378 32.647 74.3817 32.7049C74.3782 32.9382 74.4581 33.1651 74.607 33.3447C74.6957 33.4546 74.8084 33.5427 74.9365 33.6023C75.0646 33.6619 75.2046 33.6913 75.3458 33.6884C75.6415 33.6844 75.9244 33.567 76.1361 33.3605C76.3711 33.159 76.5231 32.8776 76.5628 32.5706C76.5665 32.5154 76.5665 32.46 76.5628 32.4047C76.5698 32.1697 76.4896 31.9404 76.3376 31.7609C76.2495 31.6501 76.1369 31.5611 76.0088 31.5008C75.8806 31.4405 75.7403 31.4106 75.5987 31.4134L75.5947 31.4094Z" fill="white"/>
<path d="M78.257 28.7314C77.5508 29.2662 77.085 30.0584 76.961 30.9353C76.9377 31.0869 76.9258 31.2401 76.9255 31.3935C76.9117 31.9481 77.1063 32.4878 77.4707 32.9062C77.7061 33.17 77.9975 33.3779 78.3236 33.5146C78.6497 33.6512 79.0022 33.7133 79.3554 33.6961C79.9093 33.6971 80.4613 33.6308 80.9991 33.4986H81.086L81.5641 31.6818L81.2955 31.7845C80.8369 31.9904 80.3436 32.1083 79.8414 32.132C79.6905 32.1467 79.5383 32.1293 79.3946 32.081C79.2509 32.0327 79.1191 31.9545 79.0077 31.8516C78.9352 31.7766 78.8791 31.6872 78.843 31.5893C78.807 31.4914 78.7918 31.387 78.7983 31.2829C78.8012 31.2128 78.8078 31.1429 78.8181 31.0735C78.8473 30.8626 78.9178 30.6595 79.0256 30.4758C79.1334 30.2922 79.2763 30.1315 79.4463 30.0032C79.8031 29.6944 80.2586 29.5235 80.7304 29.5213C80.8985 29.5161 81.0666 29.528 81.2322 29.5569C81.3231 29.5845 81.5009 29.6477 81.7577 29.7465L81.9079 29.8057L82.382 28.0837L82.2477 28.0402C81.7829 27.8996 81.2989 27.8329 80.8134 27.8427C79.8836 27.8312 78.9791 28.1457 78.257 28.7314Z" fill="white"/>
<path d="M84.1837 31.8359C84.0623 31.6809 84.0006 31.4874 84.0099 31.2908C84.0061 31.2224 84.0061 31.1538 84.0099 31.0854C84.0719 30.6726 84.2408 30.2832 84.4998 29.9558C84.6 29.8014 84.7369 29.674 84.8982 29.5851C85.0595 29.4963 85.2402 29.4486 85.4244 29.4463C85.5358 29.4366 85.6479 29.4558 85.7497 29.5022C85.8514 29.5486 85.9395 29.6205 86.0052 29.711C86.1146 29.8636 86.1689 30.0488 86.1593 30.2363C86.1649 30.3099 86.1649 30.3838 86.1593 30.4574C86.0984 30.8831 85.9159 31.2822 85.6338 31.6068C85.5318 31.7553 85.3966 31.878 85.2388 31.9651C85.081 32.0522 84.9051 32.1012 84.725 32.1084C84.6188 32.1076 84.5141 32.0827 84.419 32.0355C84.3238 31.9883 84.2406 31.92 84.1758 31.8359M85.6773 27.8586C84.8219 27.862 83.9993 28.1878 83.3737 28.7709C82.7123 29.3222 82.2787 30.0989 82.1568 30.9511C82.1389 31.082 82.1297 31.214 82.1291 31.3461C82.1213 31.9085 82.321 32.4541 82.6902 32.8786C82.9187 33.1392 83.2026 33.3454 83.5212 33.4821C83.8398 33.6188 84.185 33.6825 84.5314 33.6685C85.3867 33.6708 86.2101 33.3441 86.831 32.7561C87.4821 32.1776 87.9029 31.384 88.0163 30.5206C88.0363 30.3687 88.0469 30.2157 88.048 30.0625C88.062 29.5201 87.8732 28.992 87.5185 28.5814C87.2845 28.3294 86.9979 28.1319 86.679 28.0029C86.3601 27.8739 86.0168 27.8165 85.6733 27.8349L85.6773 27.8586Z" fill="white"/>
<path d="M92.5724 27.8586C92.0261 27.8849 91.5026 28.0856 91.0789 28.4313L91.2092 27.9455H89.3759L87.835 33.5896H89.6643L90.6245 30.0941C91.1579 29.5649 91.5806 29.3042 91.8098 29.3279C91.8432 29.3252 91.8767 29.3297 91.9081 29.3413C91.9395 29.3529 91.968 29.3713 91.9916 29.3951C92.0425 29.4779 92.066 29.5746 92.0587 29.6715C92.0587 29.7308 92.0587 29.7979 92.0587 29.8769C92.0347 30.0356 92.0004 30.1926 91.956 30.3469L91.0868 33.5896H92.9201L93.8763 30.102C94.3978 29.5688 94.8285 29.3121 95.109 29.3121C95.1959 29.3121 95.2315 29.3358 95.2592 29.3753C95.3091 29.4613 95.3312 29.5606 95.3224 29.6597C95.3224 29.7268 95.3224 29.8058 95.3224 29.8927C95.3006 30.034 95.2702 30.1738 95.2315 30.3114L94.3267 33.5896H96.1561L97.0925 30.1613C97.1365 30.0152 97.1695 29.866 97.1913 29.715C97.2099 29.5908 97.2191 29.4653 97.2189 29.3398C97.2313 28.9943 97.1299 28.6544 96.9305 28.3721C96.7927 28.1981 96.6145 28.0604 96.4114 27.9709C96.2083 27.8814 95.9863 27.8429 95.7649 27.8586C95.0515 27.9121 94.3786 28.2107 93.8605 28.7039C93.7884 28.4412 93.6262 28.2122 93.4023 28.057C93.1784 27.9018 92.907 27.8302 92.6356 27.8547H92.5921" fill="white"/>
<path d="M98.3643 31.4094C98.0679 31.4137 97.7846 31.5326 97.5741 31.7412C97.3433 31.9461 97.1922 32.2258 97.1473 32.5311C97.1473 32.5904 97.1473 32.6496 97.1473 32.7049C97.1438 32.9382 97.2236 33.1651 97.3725 33.3447C97.4605 33.4546 97.5725 33.5427 97.6999 33.6022C97.8273 33.6618 97.9668 33.6913 98.1075 33.6884C98.4035 33.686 98.687 33.5684 98.8977 33.3605C99.0344 33.2423 99.1443 33.0962 99.22 32.932C99.2956 32.7679 99.3353 32.5894 99.3363 32.4087C99.3418 32.1732 99.2602 31.9439 99.1071 31.7649C99.02 31.6549 98.9088 31.5663 98.7821 31.5061C98.6553 31.4458 98.5165 31.4155 98.3761 31.4173L98.3643 31.4094Z" fill="white"/>
<path d="M101.834 32.0135C101.77 31.892 101.738 31.7559 101.743 31.6185C101.736 31.5371 101.736 31.4551 101.743 31.3737C101.801 30.8695 102.02 30.3974 102.367 30.0268C102.543 29.8466 102.755 29.7055 102.989 29.6129C103.224 29.5203 103.475 29.4783 103.727 29.4897H103.869L103.233 31.8121C102.943 32.0509 102.584 32.1895 102.209 32.207C102.131 32.2168 102.051 32.2029 101.981 32.167C101.91 32.1311 101.852 32.0748 101.814 32.0056M101.214 28.7867C100.468 29.3964 99.9878 30.2713 99.8741 31.2275C99.8495 31.3923 99.8363 31.5586 99.8346 31.7252C99.824 32.1672 99.9435 32.6026 100.178 32.9772C100.316 33.1993 100.51 33.3814 100.74 33.5054C100.97 33.6294 101.229 33.6911 101.49 33.6842C101.957 33.6773 102.413 33.5405 102.806 33.2892L102.727 33.5894H104.6L106.117 28.0599L105.967 28.0244C105.395 27.9041 104.812 27.8446 104.228 27.8466C103.154 27.7957 102.097 28.1274 101.245 28.7827" fill="white"/>
<path d="M111.759 27.9416H110.131L109.167 31.4962C108.653 31.986 108.215 32.2111 107.895 32.2072C107.865 32.211 107.834 32.2068 107.806 32.195C107.779 32.1832 107.755 32.1642 107.737 32.14C107.687 32.0468 107.665 31.9412 107.673 31.8359C107.673 31.7569 107.673 31.67 107.673 31.5713C107.707 31.3662 107.751 31.1631 107.808 30.963L108.637 27.9376H106.812L105.844 31.4409C105.808 31.595 105.777 31.7451 105.753 31.8793C105.736 31.9998 105.727 32.1211 105.725 32.2427C105.715 32.5775 105.815 32.9065 106.01 33.1788C106.15 33.3476 106.329 33.4804 106.531 33.5663C106.733 33.6522 106.953 33.6886 107.171 33.6725C107.707 33.6599 108.227 33.4955 108.673 33.1985L108.558 33.5935H110.4L111.948 27.9416H111.759Z" fill="white"/>
<path d="M54.151 12.9606L51.3852 15.7253L52.1636 12.9329H47.2405L43.9175 25.3743H48.8051L51.1758 16.531C51.647 16.3317 52.1537 16.2296 52.6654 16.2309C53.2265 16.2315 53.7822 16.3415 54.3012 16.5547C54.8996 16.7701 55.448 17.1047 55.9132 17.5382L57.1223 13.008C56.6642 12.7977 56.1644 12.6937 55.6604 12.7039C55.1467 12.7041 54.6367 12.7895 54.151 12.9566M21.317 22.2778L22.933 16.302C23.3385 15.949 23.8535 15.7467 24.391 15.7293C24.6288 15.7248 24.8639 15.7804 25.0745 15.8909C25.2852 16.0013 25.4646 16.1631 25.5961 16.3612C25.8008 16.7299 25.898 17.1486 25.8766 17.5698C25.8766 18.6007 25.0864 22.4792 22.3956 22.4792C22.0254 22.484 21.6577 22.4169 21.313 22.2817M25.6988 12.9092L23.1068 15.674L23.8339 12.929H19.053L14.3116 30.5917H19.1004L20.4635 25.548C21.1334 25.7018 21.8189 25.7773 22.5063 25.7732C28.9545 25.7732 30.8037 19.7065 30.8037 17.0129C30.8037 14.2482 29.2943 12.6249 27.1291 12.6249C26.6327 12.6142 26.1405 12.7183 25.6909 12.929M9.45563 13.5609C8.9024 13.9444 8.45051 14.4563 8.13876 15.0527C7.82701 15.6492 7.6647 16.3123 7.66576 16.9853C7.66576 18.7468 8.79974 19.4301 9.98508 20.1055C11.1704 20.7808 11.5655 20.9862 11.5655 21.5668C11.5655 22.3014 10.9057 22.6293 10.1747 22.6293C8.91432 22.6293 7.57883 21.7959 6.46856 21.0889L6.16827 22.183L6.00627 22.7912L5.54004 24.5132C7.11807 25.2833 8.84569 25.6986 10.6015 25.7297C13.956 25.7297 16.2714 23.8142 16.2714 21.3456C16.2714 19.5091 14.9872 18.7823 13.6755 18.0477C12.7943 17.5698 12.3637 17.317 12.3637 16.7364C12.3637 16.0097 13.0472 15.6779 13.8809 15.6779C15.0136 15.7221 16.0929 16.1705 16.9233 16.9418L17.8084 13.636C16.3965 12.9177 14.8329 12.5479 13.2487 12.5577C11.9181 12.4982 10.6004 12.8409 9.46748 13.5412M36.1575 22.0526C35.8396 21.6241 35.6867 21.0956 35.7268 20.5636C35.7268 19.28 36.4341 15.7293 38.5716 15.7293C39.1801 15.7293 40.2153 16.0334 40.2153 17.7949C40.2153 18.9324 39.5318 22.5858 37.3626 22.5858C37.1385 22.586 36.9169 22.5386 36.7125 22.4467C36.5082 22.3547 36.3257 22.2204 36.1773 22.0526M30.9657 20.0146C30.9657 23.7154 33.6367 25.7297 37.4298 25.7297C43.0009 25.7297 44.9883 21.2982 44.9883 18.4229C44.9883 15.204 42.6413 12.5577 38.5598 12.5577C37.5668 12.5317 36.5787 12.7058 35.6544 13.0696C34.7301 13.4335 33.8885 13.9796 33.1799 14.6754C32.4712 15.3713 31.91 16.2026 31.5296 17.1199C31.1492 18.0372 30.9574 19.0217 30.9657 20.0146ZM59.8091 11.5229L59.4416 12.9329L56.6758 16.456H58.5131L57.2803 20.9428C57.1576 21.4455 57.0822 21.9585 57.0551 22.4752C57.0551 24.2921 58.4696 25.7495 60.8324 25.7495C61.5338 25.7332 62.23 25.6243 62.9028 25.4256L65.3604 22.7675L64.8942 24.4895C66.4621 25.263 68.18 25.685 69.928 25.7258C73.2825 25.7258 75.6018 23.8102 75.6018 21.3417C75.6018 19.5051 74.3177 18.7784 73.0059 18.0438C72.1209 17.5658 71.6941 17.3131 71.6941 16.7325C71.6941 16.0057 72.3777 15.674 73.2074 15.674C74.3415 15.7173 75.4223 16.1657 76.2538 16.9379L77.1388 13.632C75.7255 12.9137 74.1607 12.544 72.5752 12.5538C71.2458 12.4943 69.9294 12.837 68.7979 13.5372C68.2442 13.9202 67.792 14.432 67.4802 15.0286C67.1684 15.6251 67.0063 16.2885 67.0081 16.9616C67.0081 18.7231 68.142 19.4064 69.3274 20.0818C70.5127 20.7571 70.9079 20.9625 70.9079 21.5431C70.9079 22.2778 70.252 22.6056 69.525 22.6056C68.2645 22.6056 66.9251 21.7722 65.8188 21.0652L65.5185 22.1593L65.1234 22.2304H65.0167L64.8586 22.2541L64.7046 22.2778H64.5702L64.3094 22.3093H64.2304H64.0408H63.9657H63.7444C62.7882 22.3093 62.1324 21.9144 62.1324 21.1245C62.1605 20.6642 62.2454 20.2092 62.3852 19.7697L63.3137 16.3928H65.961L66.9014 12.9329H64.2541L65.2143 9.40198L59.8091 11.5229Z" fill="white"/>
<path d="M81.1537 22.2344L82.8408 15.915C83.2477 15.7749 83.6749 15.7029 84.1052 15.7017C86.9579 15.7017 85.5789 19.8133 84.9902 20.8994C84.7455 21.3851 84.4118 21.8205 84.0064 22.183C83.5523 22.584 82.9757 22.8193 82.3706 22.8505C82.1328 22.858 81.8968 22.806 81.6843 22.699C81.4717 22.5921 81.2893 22.4337 81.1537 22.2383M80.1461 7.14287L75.1084 25.8325H80.1777L80.968 22.9256L82.1533 25.8325C82.5605 26.0672 83.0273 26.1783 83.4967 26.1524C85.7963 26.1524 88.3092 24.4462 89.8857 21.5116C91.4227 18.656 92.9044 12.2339 86.0768 12.2339C85.3081 12.2345 84.5415 12.3139 83.7891 12.4709L85.2115 7.13892L80.1461 7.14287Z" fill="white"/>
<path d="M96.6533 17.0367C97.2302 16.0572 97.9177 15.5753 98.7395 15.5753C98.9024 15.5617 99.0663 15.5864 99.2179 15.6474C99.3695 15.7085 99.5047 15.8042 99.6127 15.9268C99.7144 16.0723 99.7852 16.2371 99.8205 16.4111C99.8559 16.585 99.8551 16.7643 99.8182 16.9379C99.8182 16.9695 99.8182 17.0051 99.8182 17.0406L96.6533 17.0367ZM94.0535 14.3154C92.5922 15.6459 91.65 17.4511 91.3943 19.4104C91.1257 21.3615 91.505 22.9651 92.5046 24.1499C93.5043 25.3348 94.9899 25.947 96.9101 25.951C98.4158 25.902 99.9014 25.5906 101.3 25.0307L101.478 24.9636L102.876 20.8204L102.039 21.1601C100.024 21.9816 98.542 22.4003 97.6253 22.4003C97.3155 22.4248 97.0043 22.3736 96.7186 22.2511C96.4329 22.1287 96.1814 21.9386 95.9856 21.6972C95.8239 21.451 95.7133 21.1749 95.6604 20.8852C95.6074 20.5955 95.6132 20.2982 95.6774 20.0107H103.406L103.497 19.7422C103.704 19.155 103.853 18.5492 103.943 17.9332C104.172 16.2507 103.844 14.8644 102.975 13.8098C102.106 12.7553 100.814 12.23 99.1426 12.23C97.2364 12.2412 95.4101 12.9966 94.0535 14.3351" fill="white"/>
<path d="M107.46 11.523L107.065 12.937L104.299 16.4601H106.144L104.903 20.9469C104.787 21.4505 104.715 21.9632 104.686 22.4793C104.686 24.2961 106.097 25.7535 108.459 25.7535C109.16 25.7376 109.854 25.6287 110.526 25.4297L113.655 22.0606L113.149 22.1633L112.754 22.2344H112.656L112.49 22.2581L112.339 22.2818H112.205L111.948 22.3134H111.861H111.676H111.601H111.379C110.423 22.3134 109.767 21.9185 109.767 21.1285C109.795 20.6683 109.88 20.2132 110.02 19.7738L110.949 16.3969H113.6L114.54 12.9331H111.889L112.849 9.4021L107.46 11.523Z" fill="white"/>
</svg>
