<svg width="52" height="60" viewBox="0 0 52 60" fill="none" xmlns="http://www.w3.org/2000/svg">
<path d="M20.1436 13.4571C19.5039 13.3656 19.4734 13.3351 19.778 13.3045C20.3568 13.213 21.697 13.3351 22.6413 13.5487C24.8345 14.0674 26.8144 15.4101 28.9161 17.7598L29.4644 18.4006L30.2563 18.2785C33.6374 17.7293 37.1099 18.1565 40.0036 19.4991C40.7956 19.8653 42.0445 20.5977 42.1968 20.7808C42.2578 20.8419 42.3491 21.2385 42.4101 21.6352C42.6233 23.0695 42.5319 24.1375 42.075 24.9614C41.8314 25.4191 41.8314 25.5412 41.9837 25.9378C42.1055 26.243 42.471 26.4566 42.8061 26.4566C43.5372 26.4566 44.2987 25.297 44.6641 23.6797L44.8164 23.039L45.0905 23.3441C46.644 25.0835 47.8624 27.4941 48.0452 29.203L48.1062 29.6608L47.8321 29.2641C47.3752 28.5622 46.9487 28.1045 46.3699 27.7078C45.3343 27.0059 44.2377 26.7923 41.344 26.6397C38.7244 26.4872 37.2318 26.2735 35.7698 25.7853C33.272 24.9614 31.9927 23.8934 29.038 19.9569C27.7282 18.2176 26.9058 17.2716 26.0834 16.4782C24.2862 14.7388 22.489 13.8233 20.1436 13.4572V13.4571Z" fill="white"/>
<path d="M42.8366 17.3327C42.8975 16.1732 43.0498 15.4103 43.3848 14.7085C43.5067 14.4339 43.6285 14.1897 43.6589 14.1897C43.6894 14.1897 43.6285 14.4034 43.5371 14.6474C43.2935 15.3187 43.263 16.2647 43.4153 17.3328C43.6286 18.7059 43.7199 18.889 45.182 20.3843C45.8521 21.0862 46.6441 21.9711 46.9487 22.3373L47.4665 23.0086L46.9487 22.5204C46.3091 21.9101 44.8469 20.7506 44.5119 20.598C44.2987 20.476 44.2682 20.476 44.1159 20.6285C43.9941 20.7505 43.9636 20.9336 43.9636 21.8186C43.9332 23.1917 43.7504 24.0461 43.2935 24.9311C43.0498 25.3888 43.0194 25.2973 43.2326 24.7785C43.3848 24.3818 43.4153 24.1987 43.4153 22.8866C43.4153 20.2318 43.1107 19.591 41.2526 18.5229C40.7957 18.2483 40.0037 17.8516 39.5468 17.638C39.0595 17.4243 38.694 17.2413 38.7244 17.2413C38.7854 17.1802 40.5825 17.699 41.283 18.0041C42.3492 18.4314 42.5319 18.4619 42.6538 18.4314C42.7452 18.3398 42.8061 18.0956 42.8365 17.3328L42.8366 17.3327Z" fill="white"/>
<path d="M21.3916 21.8793C20.1123 20.1094 19.2898 17.3631 19.4726 15.3185L19.5336 14.6777L19.8382 14.7388C20.3864 14.8303 21.3307 15.1965 21.7876 15.4712C23.006 16.2036 23.5543 17.2106 24.0722 19.7128C24.2245 20.4452 24.4377 21.2996 24.529 21.5742C24.6813 22.032 25.2601 23.1 25.7475 23.7714C26.0825 24.2596 25.8693 24.5037 25.1078 24.4427C23.9504 24.3206 22.3969 23.2526 21.3916 21.8794L21.3916 21.8793Z" fill="white"/>
<path d="M41.2828 35.1534C35.2516 32.7122 33.1194 30.6067 33.1194 27.0363C33.1194 26.5176 33.1498 26.0903 33.1498 26.0903C33.1803 26.0903 33.3935 26.2734 33.6677 26.487C34.8861 27.4635 36.2568 27.8907 40.0644 28.44C42.288 28.7757 43.5673 29.0198 44.7248 29.4165C48.4104 30.6371 50.695 33.1394 51.2433 36.5266C51.3956 37.503 51.3042 39.3645 51.0605 40.3409C50.8473 41.1038 50.2381 42.5076 50.0858 42.5381C50.0554 42.5381 49.9945 42.3855 49.9945 42.1414C49.9335 40.8597 49.2939 39.6391 48.2278 38.6932C46.9484 37.5946 45.3035 36.7707 41.2828 35.1534V35.1534Z" fill="white"/>
<path d="M37.0179 36.1605C36.957 35.7028 36.8047 35.123 36.7133 34.8789L36.561 34.4211L36.8351 34.7568C37.2311 35.2145 37.5357 35.7638 37.8098 36.5267C38.0231 37.1065 38.0231 37.2895 38.0231 38.2355C38.0231 39.1509 37.9926 39.3646 37.8098 39.8833C37.5052 40.7072 37.1397 41.287 36.5304 41.9278C35.4339 43.0569 34.0022 43.6672 31.9614 43.9418C31.5958 43.9724 30.5602 44.0639 29.6464 44.1249C27.3619 44.247 25.8389 44.4911 24.4681 44.9793C24.2854 45.0404 24.1026 45.1014 24.0721 45.0709C24.0112 45.0098 24.9555 44.4605 25.717 44.0944C26.7832 43.5756 27.8797 43.301 30.2861 42.8738C31.474 42.6907 32.6924 42.4465 32.9971 42.3245C36.0127 41.3785 37.5053 39.0288 37.0179 36.1605V36.1605Z" fill="white"/>
<path d="M39.7897 41.0733C38.9978 39.3339 38.815 37.6861 39.2415 36.1298C39.3024 35.9773 39.3633 35.8247 39.4242 35.8247C39.4851 35.8247 39.6679 35.9162 39.8507 36.0383C40.2162 36.2825 40.9778 36.7097 42.9272 37.7777C45.3944 39.1203 46.7956 40.1579 47.7703 41.348C48.6232 42.3855 49.141 43.5756 49.3847 45.0404C49.537 45.8643 49.4456 47.8477 49.2324 48.6716C48.5623 51.2654 47.0392 53.3404 44.8156 54.5306C44.4806 54.7136 44.2064 54.8357 44.176 54.8357C44.1456 54.8357 44.2674 54.5306 44.4501 54.1644C45.1812 52.6081 45.2725 51.1128 44.7242 49.4345C44.3892 48.397 43.6886 47.1459 42.2874 45.0404C40.6121 42.5991 40.2161 41.9583 39.7897 41.0733L39.7897 41.0733Z" fill="white"/>
<path d="M17.0968 50.4111C19.3508 48.5192 22.1227 47.1765 24.6814 46.7493C25.778 46.5662 27.6056 46.6273 28.6108 46.9019C30.2252 47.3291 31.6873 48.2445 32.4488 49.3736C33.1798 50.4721 33.5149 51.4181 33.8499 53.5236C33.9717 54.3475 34.124 55.2019 34.1545 55.385C34.3982 56.4835 34.8856 57.338 35.4947 57.7957C36.439 58.4975 38.0839 58.528 39.6983 57.9177C39.9724 57.8262 40.2161 57.7346 40.2161 57.7651C40.277 57.8262 39.4546 58.3754 38.9063 58.6501C38.1448 59.0468 37.5356 59.1688 36.7131 59.1688C35.251 59.1688 34.0021 58.4059 32.9969 56.8802C32.7837 56.5751 32.3573 55.6902 31.9918 54.8662C30.9256 52.3945 30.3773 51.6621 29.1285 50.8382C28.0319 50.1363 26.6307 49.9838 25.5646 50.5025C24.1634 51.1739 23.7979 52.9742 24.7727 54.0728C25.1686 54.5305 25.8997 54.8967 26.5089 54.9883C27.6359 55.1409 28.6107 54.2559 28.6107 53.1269C28.6107 52.3945 28.3366 51.9673 27.6055 51.6316C26.6308 51.2044 25.5647 51.6927 25.5951 52.6386C25.5951 53.0353 25.7778 53.2794 26.1739 53.4625C26.4175 53.5845 26.4175 53.5845 26.2348 53.554C25.3514 53.3709 25.1382 52.2724 25.8388 51.5705C26.6917 50.7161 28.4889 51.0823 29.098 52.2724C29.3417 52.7606 29.3721 53.7371 29.159 54.3474C28.6411 55.69 27.1791 56.3919 25.6866 55.9952C24.6813 55.7206 24.2549 55.4459 23.0365 54.1948C20.9043 51.9977 20.0818 51.5705 17.0358 51.1128L16.457 51.0213L17.0968 50.4111Z" fill="white"/>
<path fill-rule="evenodd" clip-rule="evenodd" d="M1.07502 1.31216C8.17228 9.94795 19.1075 23.3747 19.6558 24.107C20.1127 24.7173 19.9299 25.297 19.1684 25.7243C18.742 25.9684 17.8586 26.2125 17.4322 26.2125C16.9449 26.2125 16.3661 25.9683 15.9701 25.5717C15.696 25.2971 14.508 23.5577 11.8276 19.3771C9.78675 16.173 8.05048 13.5182 8.02007 13.4876C7.89818 13.4266 7.89818 13.4266 11.6143 20.0789C13.9598 24.2595 14.7213 25.7548 14.7213 25.9379C14.7213 26.3346 14.5995 26.5482 14.112 27.0974C13.2896 28.0129 12.9241 29.0504 12.6499 31.217C12.3453 33.6277 11.5229 35.3366 9.17749 38.2355C7.80679 39.9443 7.59355 40.2495 7.25851 40.9514C6.832 41.8058 6.71019 42.294 6.64925 43.3926C6.58831 44.5521 6.71019 45.2845 7.04523 46.3831C7.34983 47.3596 7.68487 48.0004 8.50737 49.2515C9.20794 50.3501 9.63442 51.174 9.63442 51.4791C9.63442 51.7233 9.69536 51.7233 10.7919 51.4791C13.4115 50.8688 15.5742 49.8313 16.7621 48.5497C17.4932 47.7563 17.6759 47.3291 17.6759 46.2306C17.6759 45.5287 17.6455 45.3761 17.4627 44.9489C17.1581 44.2775 16.5793 43.7283 15.3305 42.8739C13.6856 41.7448 12.985 40.8294 12.8022 39.6088C12.6499 38.5712 12.8327 37.8694 13.7465 35.9469C14.6908 33.9634 14.9344 33.1395 15.0867 31.1255C15.1781 29.8438 15.3304 29.3251 15.6959 28.9284C16.0919 28.5011 16.427 28.3486 17.3712 28.2266C18.9247 28.0129 19.9299 27.6162 20.7219 26.8533C21.4225 26.2126 21.7271 25.5717 21.7576 24.6258L21.788 23.9239L21.3921 23.4966C19.9605 21.8489 0.130756 0 0.0394401 0C0.00898872 0 0.496327 0.579813 1.0751 1.31216H1.07502ZM10.4263 44.7047C10.7613 44.1249 10.5786 43.3925 10.0303 43.0264C9.51249 42.6907 8.72053 42.8433 8.72053 43.301C8.72053 43.423 8.78147 43.5451 8.96421 43.6061C9.23832 43.7587 9.26881 43.9113 9.05557 44.2469C8.84233 44.5826 8.84233 44.8877 9.11651 45.1013C9.54298 45.437 10.1218 45.2539 10.4263 44.7047V44.7047Z" fill="white"/>
<path fill-rule="evenodd" clip-rule="evenodd" d="M22.7624 28.6539C22.0313 28.8675 21.3307 29.6609 21.1175 30.4543C20.9957 30.9425 21.0566 31.8275 21.2698 32.1021C21.6048 32.5294 21.9094 32.6514 22.7624 32.6514C24.4377 32.6514 25.8693 31.919 26.0216 31.0341C26.1739 30.3017 25.5343 29.2948 24.6509 28.837C24.194 28.5929 23.2497 28.5014 22.7624 28.6539V28.6539ZM24.7118 30.1797C24.9555 29.8135 24.8641 29.4168 24.4072 29.1421C23.5848 28.6234 22.3359 29.0506 22.3359 29.844C22.3359 30.2407 22.9755 30.6679 23.5848 30.6679C23.9808 30.6679 24.529 30.4238 24.7118 30.1797Z" fill="white"/>
</svg>
